<svg xmlns="http://www.w3.org/2000/svg" viewBox="0 0 900 900" xmlns:v="https://vecta.io/nano"><style><![CDATA[.B{fill:#d2232a}.C{stroke:#ffec80}.D{stroke:#e99195}.E{fill:#ffd800}.F{fill:#ffe2b6}.G{stroke:#e97e15}.H{stroke:#857002}]]></style><g fill="none" stroke-width="2"><path stroke="#fff1db" vector-effect="non-scaling-stroke" d="M339.45 136.45c26.09-8.88 51.79-15.35 79.8-18.21q28.03-2.85 60.44-.29c7.85.63 16.08 1.92 24.07 3.13 20.24 3.06 40.36 8.92 59.7 15.53q5.47 1.87 11.88 4.73c9.82 4.38 20.16 8.68 29 13.54q21.31 11.73 41.21 25.73 4.58 3.23 9.7 7.56c7.88 6.67 15.9 13.23 23.09 20.31 6.96 6.86 14.12 13.55 20.33 21.18 6.26 7.68 13.25 15.91 18.46 23.16 18.63 25.92 34.34 55.04 44.34 85.42q8.57 26.04 12.45 46.84 5.21 27.88 5.58 62.26c.08 7.71-.84 15.68-1.42 23.58q-.8 10.84-1.76 17.6-3.2 22.42-8.96 44.3c-3.19 12.09-8.07 24.74-12.51 37.02q-2.06 5.72-10.74 23.61c-4.55 9.38-10.3 18.4-15.7 27.47-4.16 6.96-9.34 13.53-14.04 20.34-7.57 10.94-14.14 18.89-7.9 30.16q2.04 3.69 9.16 10.14 24.77 22.43 33.2 29.59c8.13 6.91 19.18 6.18 26.76-.55q2.22-1.97 8.25-10.17 5.77-7.85 13.7-19.39 24.31-35.37 40.05-73.22 9.1-21.89 13.23-35.29 3.03-9.85 9.86-37.28 1.88-7.51 6.08-35.28c.99-6.55 1.42-13.28 2.04-19.98q.76-8.09.92-15.01.76-31.55-.19-45.23-1.64-23.44-3.98-38.53-5.44-35.14-17.59-71.49c-12.45-37.27-31.08-73.07-53.41-105.33-5.7-8.23-12.55-16.69-19.04-24.85q-6.95-8.74-12.9-15.28c-28.34-31.11-59.95-56.67-95.96-78.7q-8.78-5.37-17.35-9.93c-40.62-21.58-84.92-36.97-130.42-44.25q-24.52-3.92-39.38-4.9-15.88-1.05-42.76-.49-10.45.22-19.96 1.12-25.05 2.38-46.26 6.44-26.74 5.13-55.17 14.89c-8.67 2.97-18.02 6.83-27.01 10.4q-9.63 3.82-18.28 8.09c-9.89 4.9-20.08 9.87-29.31 15.38q-29.25 17.48-55.86 38.75-7.55 6.03-15.17 13.02c-24.33 22.31-43.62 44.28-62.75 71.25-7.12 10.04-13.58 21.1-20.03 31.9-7.44 12.47-13.49 25.55-19.73 38.63q-2.03 4.25-3.86 9.1l-8.71 23.1q-9.33 27.16-13.67 48.94-5.97 29.93-6.89 40.75c-.79 9.37-1.85 18.78-2 28.02-.31 19.43-.84 39.4 1.27 58.72q3.36 30.76 10.4 60.88 1.61 6.85 4.44 16.1c5.39 17.57 10.71 34.62 18.93 52.53 4.76 10.38 9.69 21.24 14.92 30.73q17.41 31.56 39.34 60.2 3.46 4.52 6.29 6.52c8.34 5.88 17.59 6.46 25.63-.41q9.43-8.05 34.24-30.19c6.99-6.24 12.28-14.77 9.61-24.22q-1.02-3.62-6.42-11.23c-6.3-8.89-13.3-17.95-18.68-26.73q-22.7-37.08-34.8-75.69-7.62-24.3-11.69-53.32-1.29-9.19-1.94-19.91-.81-13.25-.89-22.5c-.29-32.05 4.33-64.64 13.64-95.81q4.13-13.85 6.11-18.96 10.6-27.44 24.91-53.09c4.09-7.35 9.17-14.43 14.05-21.51q4.97-7.23 11.57-15.38c5.84-7.2 11.5-14.91 17.71-21.37q19.13-19.9 37.73-34.42 32.55-25.41 72.36-43.05 8.47-3.75 18.64-7.22"/><path vector-effect="non-scaling-stroke" d="M584.69 290.59q-.84-.08-.72-.7" class="C"/><path stroke="#858382" vector-effect="non-scaling-stroke" d="M583.97 289.89c13.51-7.95 28.6-19.31 36.42-33.9 2.38-4.43 3.67-10.55 5.97-15.73 5.82-13.09 3.94-27.08-8.14-35.75q-5.44-3.9-12.64-4.5c-10.25-.86-18.7 4.55-23.95 13.12-6.45 10.55-14.06 21.44-23.35 29.67-2.08 1.84-4.84 2.71-7.06 4.8q-.11.11-.25.04l-.22-.12q-.24-.12-.04-.31 1.56-1.5 3.25-2.81c6.58-5.12 11.23-12.16 13.65-20.07q1.09-3.58 2.5-6.4 2.33-4.69 2.67-7.39 2.09-16.95-14.25-19.36c-5.3-.78-10.83 3.96-13.13 8.37-5.08 9.71-10.19 20.05-22.11 21.78-9.71 1.4-28.54-7.57-26.47 11.47a.86.86 0 0 1-.43.84q-5.52 3.06-4.46 9.26.12.68-.57.55-13.15-2.6-16.58 9.97a1 .98 38.8 0 0 .09.75l.75 1.3a.69.68-32.3 0 1-.21.9c-2.46 1.66-4.4 3.6-4.89 6.69q-1.28 8.06 3.86 14.82 5.92 7.79 14.55 11.54 11.97 5.22 24.57 8.51c7.74 2.03 16.37 2.55 24.66 3.52q.59.07 1.15.01 1.05-.1 1.15-.14 2.69-.89.43.82-19.15 14.4-33.4 34.08-11.79 16.29-23.45 32.67c-2.75 3.86-7.54 7.86-8.82 12.34q-.14.52-.56.18-1.63-1.29-2.26-2.79c-2.36-5.6-4.86-9.99-9.48-14.07q-12.4-10.93-28.92-14.25a.63.63 0 0 1-.42-.93c.76-1.36 1.92-2.59 2.59-3.86q5.33-10.12 10.9-20.08 11.49-20.54 16.78-43.36c1.73-7.47 1.82-14.34.6-21.56-3.01-17.75-17.42-29.1-34.75-31.52-18.93-2.64-36.71 8.63-52.61 17.01q-14.99 7.9-17.23 8.8c-16.8 6.72-33.87 4.38-50.51-1.96-8.81-3.35-17.06-4.28-22.65 5.21q-1.69 2.88-2.74 4.14c-6.15 7.45-9.36 16.19-7.97 26.04 1.96 13.89 5.77 26.71 20.11 32.14 3.56 1.34 10.31 2.46 14.94 2.35q15.66-.37 35.96-4.23c13.65-2.6 27.3-5.96 41.13-7.53 8.78-1 20.87.03 26.31 8.19 3.88 5.83-.07 15.49-3.8 20.51q-10.84 14.57-23.61 27.44c-6.6 6.66-13.39 13.83-20.49 20.32q-.34.31-.38.77l-.11 1.26a1.2 1.2 0 0 1-.4.8l-6.98 6.14a.78.78 0 0 0 .28 1.34c26.25 8.07 45.67 22.08 54.91 48.76q4.68 13.51 3.21 29.58c-.62 6.74-4.15 20.36-8.64 25.38q-1.31 1.47-3.5 1.94c-7.11 1.52-14.65 2.52-21.57-.62-14.86-6.76-18.75-17.72-24.98-33.19q-9.73-24.16-24.42-50.94-7.86-14.32-10.17-17.2c-12-14.97-37.69-20.97-52.81-6.82q-4.17 3.9-5.6 5.09-3.43 2.84-5.61 5.59c-7.45 9.43-3.6 21.9 3.02 30.94 3.09 4.21 8.28 8.25 11.45 11.53 8.2 8.49 13.25 22.86 16.9 34.08q1.04 3.2 2.71 11.41c6.37 31.28 30.12 51.88 60.62 58.79 4.8 1.09 10.14 1.21 15.29 1.74q6.92.71 11.5.41c20.35-1.32 42.07-7.23 58.84-19.46q5.12-3.72 12.79-11.48 7.56-7.63 11.76-12.59c9.65-11.4 15.69-26.28 19.61-41.51 2.3-8.93 2.55-18.59 3.42-28.01.5-5.38.13-10.33-.16-15.64-.21-3.92-1.4-8.46-1.57-13.01q-.07-1.94-1.45-3.62-.35-.42-.08-.9.78-1.32 1.94-2.38c17.41-15.78 41.37-39.2 67.54-32.68 20.38 5.07 32.78 23.25 35.12 43.38q.48 4.09-.46 10.99c-.83 6.09-2.69 8.75-7.7 12.63-14.75 11.43-33.34 17.7-51.52 21-4.34.79-9.02 1.72-12.16 2.99q-10.11 4.08-15.37 13.32c-2.54 4.47-6.86 7.15-9.44 11.15-5.16 8.04-6.48 18.68-2.26 27.33 7.28 14.95 25.15 14.64 39.13 10.09 11.65-3.8 24.04-9.05 34.07-14.3q22.62-11.82 37.89-32.8c9.14-12.55 18.05-25.67 23.74-40.2q7.16-18.28 12.11-37.28c2.72-10.46 3.02-18.34 3.49-28.04 1.73-35.65-15.82-77.58-55.85-82.59"/><path vector-effect="non-scaling-stroke" d="M583.97 289.89q-11.51 6.2-24.26 9.17c-4.25.99-9.35 1.49-14.04 2.21q-2.18.34-3.96 1.67c-3.88 2.89-7.71 5.66-11.15 8.96q-10.57 10.12-16.87 18.29-6.35 8.23-9.28 11.74-.49.59-.62 1.27a.3.3 0 0 0 .53.24c.57-.67 1.52-1.22 1.99-1.82 21.73-27.79 56.07-50.48 91.61-30.81 28.79 15.94 38.01 54.11 34.35 84.25-1.24 10.2-1.88 16.32-4.67 24.62q-5.84 17.34-11.31 30.31c-1.16 2.75-3.05 5.36-4.46 8.15q-.11.23-.32.09-.11-.07-.21-.23" class="H"/><path stroke="#6f1517" vector-effect="non-scaling-stroke" d="M611.3 458q11.15-23.66 15.8-40.88c5.91-21.91 6.64-45.22-.26-67-7.49-23.64-26.09-43.36-52-45.16q-8.93-.62-12.36-.04c-17.41 2.92-33.09 13.29-45.25 26.06q-17.67 18.57-32.21 39.63c-4.89 7.07-9.58 12.94-14.63 19.27q-1.99 2.48-4.43 3.86a.84.84 0 0 1-1.17-.36c-1.76-3.52-3.39-7.61-5.45-10.58-7.87-11.33-21.12-18.53-34.69-21.12a.57.57 0 0 1-.37-.87q10.77-16.36 19.58-33.6 5.04-9.84 7.86-18.36 3.74-11.27 5.84-23.01c.65-3.64.24-6.85.06-10.52q-.23-4.87-.97-7.83c-3.22-12.98-14.19-22.14-26.65-25.59-21.92-6.07-43.77 7.5-63.63 18.08q-11.51 6.12-21.6 8.04-13.77 2.61-28.1-1.23-3.18-.85-10.4-3.76c-6.4-2.58-15.09-6.11-20.53-.73-11.8 11.68-9.89 25.99-5.05 40.27q4.12 12.14 15.35 16.16 9.02 3.24 11.71 3.01c6.26-.52 12.79-.29 18.65-1.02q8.51-1.05 12.35-1.81 19.68-3.92 39.38-7.82c3.31-.66 7.06-.68 10.62-1.35q2.98-.56 5.53-.27c8.85 1.03 15.29 1.18 20.91 8.61q1.89 2.49 2.12 5.78.51 7.34-2.88 13.06c-12.1 20.43-31.43 35.76-47.61 53.7-1.77 1.96-3.84 3.4-5.62 5.41a.84.84 0 0 0 .37 1.35c10.24 3.36 20.66 7.93 28.99 14.31 15.73 12.03 25.03 28.93 27.49 48.66q1.04 8.36.58 13.89-1.25 15.39-10.42 30.22-2 3.23-4.35 5.19-2.64 2.2-5.71 3.79c-2.9 1.49-5.92 1.47-9.17 2-7.94 1.29-16.93-1.21-23.14-5.78-7.96-5.85-11.91-13.75-15.84-24.07q-14.02-36.92-33.2-71.46c-1.43-2.57-3.61-5.98-5.48-7.47q-11.5-9.13-25.91-10.94c-4.77-.6-12.1 1.34-15.65 2.78q-5.25 2.12-9.36 8.37c-7.77 11.8-.46 25.98 8.5 34.37q6.14 5.75 6.54 6.23 6.99 8.18 11.63 20.17 3.29 8.48 5.16 13.92 1.05 3.06 2.86 11.55c6.5 30.51 28.31 49.85 58.09 57.53 5.09 1.31 10.94 1.17 16.48 2.01 3.63.55 6.86.34 10.43.32q4.45-.02 7.81-.45 21.46-2.76 38.84-11.08 15.83-7.57 27.97-22.36c3.04-3.7 5.4-8.29 8.23-12.87 6.19-9.99 9.34-21.66 11.95-33.91 1.39-6.51 1.55-13.59 2.32-20.48q.65-5.8.31-10.67c-.45-6.62-.74-13.26-2.38-19.72-.45-1.75-1.4-6.01.15-7.39q10.31-9.18 20.49-18.5c15.05-13.78 34.58-28.14 55.96-24.36 27.07 4.78 44.86 36.42 36.85 62.43-.57 1.86-1.91 3.47-2.72 5.33-2.1 4.82-7.55 10.86-10.46 13.23q-13.84 11.26-30.9 16.56-15.23 4.73-22.77 5.78c-9.5 1.31-17.51 2.82-24.22 9.6-8.21 8.28-11.37 21.71-5.83 32.15 7.49 14.09 25.23 12.45 38.07 8.04q14.89-5.12 29.06-11.97 35.35-17.09 51.98-52.54"/><path vector-effect="non-scaling-stroke" d="M610.8 459.79q.55 1.16 3.13-1.57.5-.52.79-1.24c.47-1.15.89-2.23 1.59-3.31q4.62-7.22 7.21-13.92 6.75-17.41 12.37-38.55 3.44-12.93 3.51-29.71.09-18.34-4.5-33.21c-5.01-16.23-15.16-31.74-30.18-40.08-6.17-3.43-13.8-5.51-20.94-7.01a.18.18 0 0 1-.01-.35l.92-.25" class="H"/><path vector-effect="non-scaling-stroke" d="M611.3 458q.11.67-.5 1.79" class="G"/><path vector-effect="non-scaling-stroke" d="M387.52 696.49q-.82 27.84 4.15 51.02c7.01 32.68 25.26 64.33 48.18 89.25q.9.98 1.81 0c22.11-23.84 39.5-53.42 47.11-84.93q6.43-26.63 5.24-54.42" class="C"/><path vector-effect="non-scaling-stroke" d="M494.01 697.41c-.61-49.55-20.81-97.88-52.15-136.01a1.39 1.38-44.8 0 0-2.14 0q-33.95 40.94-46.94 93.13-4.76 19.14-5.26 41.96" class="D"/><path vector-effect="non-scaling-stroke" d="M494.01 697.41q-.33-.24-.57-.59-.2-.27-.25-.73-1.68-16.8-6.2-33.07c-8.77-31.58-24.05-61.67-45.55-86.76q-.78-.91-1.55.01-34.19 40.97-47.16 93.5-2.66 10.76-4.03 26.97-.04.49-.37.12-.61-.7-.81-.37" class="G"/><path vector-effect="non-scaling-stroke" d="M279.64 632.92c-2.52 70.54 22.5 141.88 84.85 180.43 1.49.92 2.66 2.46 4.5 3.27" class="C"/><path vector-effect="non-scaling-stroke" d="M368.99 816.62q.48.37-.2.69a.57.56-41.2 0 1-.52-.03q-10.81-6.42-20.81-13.54-38.54-27.47-59.71-69.8a.88.88 0 0 0-.67-.47q-55.68-6.57-108.1 12.52-.6.22-.36.82 2.62 6.34 7.07 11.58" class="D"/><path vector-effect="non-scaling-stroke" d="M185.69 758.39q.19-.05.1.28-.07.27-.34.32-3.66.67-6.84 2.56a.6.6 0 0 0-.21.83q25.92 42.94 67.06 71.63c40.86 28.5 89.51 39.03 138.51 28.24 6.72-1.48 14.37-2.54 20.65-5.38q2.51-1.15-.24-1.4-13.17-1.19-27.01-7.15" class="C"/><path vector-effect="non-scaling-stroke" d="M377.37 848.32q14.67-1.78 27.32-6.61 1.98-.75-.13-.88c-8.57-.52-18.22-4.28-26.31-7.12-18.08-6.34-35.27-21.47-48.63-36.06q-.4-.44-.5-.9a.07.06-78.9 0 1 .1-.07c10.9 9.31 23.15 15.25 36.29 20.35 1.24.48 2.71.65 4 .83" class="D"/><path vector-effect="non-scaling-stroke" d="M369.51 817.86c5.17 1.53 10.42 4.76 14.08 6.48q12.81 6.04 25.96 10.44a.43.42 76.3 0 0 .43-.71q-9.76-9.56-16.87-20.64" class="C"/><path vector-effect="non-scaling-stroke" d="M393.11 813.43q8.16 3.92 16.71 5.98.79.19.2-.37-14.41-14.04-23.66-31.9-2.39-4.62-3.82-9.52a.18.17 22.3 0 1 .32-.13q4.48 7.89 10.11 15.02 4.4 5.56.78-.54-6.36-10.74-12.51-24.68" class="D"/><path vector-effect="non-scaling-stroke" d="M381.24 767.29q-.5-3.61-.92-7.12-.37-3.04-1.53-6.96-1.23-4.11-1.87-8.35c-.38-2.59-1.41-5.56-.81-8.84" class="C"/><path vector-effect="non-scaling-stroke" d="M376.11 736.02q1.76 5.38 3.46 10.75c1.02 3.23 2.68 6.06 4.26 9.01q.05.09.06-.02.02-.15.04-.3.04-.31-.08-.59c-4.75-11.25-6.87-23.83-8.95-36.61" class="D"/><path vector-effect="non-scaling-stroke" d="M374.9 718.26q-1.78-18.25-.31-28.7 1.28-9.14.1-13.92" class="C"/><path vector-effect="non-scaling-stroke" d="M374.69 675.64q-.06-6.07.99-11.41.35-1.78-.98-2.93-36.03-31.12-81.29-46.03-6.21-2.04-12.47-3.28a.48.48 0 0 0-.57.45l-.73 20.48" class="D"/><path vector-effect="non-scaling-stroke" d="M374.69 675.64q-1.54-.62-5.31-3.76-37.54-31.33-86.92-44.84a1.17 1.12 36.5 0 0-.86.11c-1.95 1.12-1.12 4.11-1.96 5.77m95.26 85.34l-.08-.8a.45.45 0 0 0-.89.02q-.61 9.36 2.18 18.54m5.13 31.27q-7.34-16.58-8.84-23.53-1.96-9.12-3.8-18.27c-.59-2.98-.6-6.11-.88-8.99q-.3-2.96-.52 0-.39 5.26.38 11.51c1.78 14.6 4.44 29.51 9.32 43.25q6.96 19.6 17.18 35.66 3.9 6.13-.83.62-3.49-4.06-7.42-9.92c-.51-.77-1.15-2.95-1.37-3.21q-2.48-2.96-1.08.64 3.83 9.83 9.73 18.38m-23.6 4.43q-.16-1.16-.52-1.24m8.38 31.7q-.74-.47-2.05-.84-1.28-.36-2.06-.73c-16.02-7.62-30.29-19.33-41.91-32.02q-2.91-3.18.56-.62 17.67 13.04 38.75 19.38a.13.13 0 0 0 .1-.24q-54.63-28.66-82.78-83.59-.71-1.38-3.23-1.62-51.31-4.96-98.16 10.35-.27.09-.54.01-.18-.05-.36-.01" class="G"/><path vector-effect="non-scaling-stroke" d="M507.06 676.92q-1.19 1.85-1.03 3.33 1.54 13.86 1.25 27.69" class="C"/><path vector-effect="non-scaling-stroke" d="M507.28 707.94q-1.33 16.28-3.48 26.31-4.06 18.86-13.5 39.72a.25.24-77.6 0 0 .22.35q.29.01.39-.18 5.79-10.48 10.97-22.61" class="D"/><path vector-effect="non-scaling-stroke" d="M501.88 751.53q-1.4 12.59-4.99 21.59-2.93 7.36-4.12 12.07" class="C"/><path vector-effect="non-scaling-stroke" d="M492.77 785.19q-8.85 20.31-24.87 35.62a.35.35 0 0 0 .35.58l15.52-5.36" class="D"/><path vector-effect="non-scaling-stroke" d="M483.77 816.03q.21-.04.34-.02.36.06.15.36-6.99 10.3-15.89 19.02a.52.52 0 0 0 .51.87c60.37-18.35 104.55-59.46 123.48-119.56q12.13-38.48 11.49-79.2" class="C"/><path vector-effect="non-scaling-stroke" d="M603.85 637.5l-1.26-24.8q-.04-.79-.82-.64-7.2 1.45-14.34 3.89-45.45 15.53-81.13 47.28a1.79 1.78 66.3 0 0-.59 1.53l1.35 12.16" class="D"/><path vector-effect="non-scaling-stroke" d="M603.85 637.5q-1.11-3.61-.86-8.36a1.96 1.96 0 0 0-2.39-2.01q-2.1.48-5.32 1.45-48.69 14.64-87.01 47.97-.34.29-1.21.37m-23.29 139.11c.87-.97 1.81-1.78 2.44-2.89q12.7-22.62 16.79-48.35.14-.91-.4-.16-1.29 1.77-1.87 3.38-3.41 9.45-7.96 17.18m9.11-33.66q3.36-7.24 4.37-17.03 1.49-14.43 1.96-24.05.04-.72-.04-1.38-.44-3.68-.89-1.13" class="G"/><path vector-effect="non-scaling-stroke" d="M508.44 848.36q-12.92 7.09-27.33 8.79a.44.44 0 0 0-.06.87q11.73 3.1 23.73 5.28 47.21 8.6 91.38-7.44c44.9-16.31 84.08-52.73 108.52-93.33a.88.87-61.2 0 0-.35-1.23q-2.52-1.26-5.47-1.91-.44-.1-.7-.31-.36-.3-.48-.64" class="C"/><path vector-effect="non-scaling-stroke" d="M697.68 758.44l6.99-11.12a.78.78 0 0 0-.39-1.14c-33.93-12.82-69.53-16.78-106.72-13.01-1.48.15-2.33.9-2.96 2.15q-15.11 30-39.53 52.85c-3.6 3.37-8.83 7.5-13.08 11.45a.28.28 0 0 0 .34.45l23.42-14.08a.36.36 0 0 1 .45.56c-17.18 18.28-37.51 33.78-60.99 41.79q-5.1 1.74.27 1.28 10.84-.94 20.4-6.06.32-.16.38.19.05.32-.27.51-14.25 8.72-31.15 15.12-6.63 2.51-13.56 2.24a.35.35 0 0 0-.15.68q12.72 5.29 27.31 6.06" class="D"/><path vector-effect="non-scaling-stroke" d="M697.68 758.44q-.72.02-1.38-.2-21.64-7.15-44.3-9.85-27.75-3.29-54.87-.21a2.83 2.82-79.7 0 0-2.2 1.53q-19.32 38.61-53.59 64.87a.21.21 0 0 0 .22.36q11.94-5.78 22.95-13.44.07-.05.53-.48.41-.38.95-.27a.39.38-62.7 0 1 .2.64q-22.39 25.13-52.9 38.92-5.07 2.29-10.1 3.28-1.35.27.01.5c4.38.75 6.9-.01 11.96-1.28q5.51-1.39 9.16-3.04 4.59-2.07.34.65c-2.84 1.81-6.34 2.81-9.42 4.66q-3.28 1.97-6.8 3.28" class="G"/><g stroke="#e98370"><path vector-effect="non-scaling-stroke" d="M500.528 91.072a26.27 25.49 100.6 0 0 29.887-21.133 26.27 25.49 100.6 0 0-20.223-30.511 26.27 25.49 100.6 0 0-29.887 21.133 26.27 25.49 100.6 0 0 20.223 30.511M377.21 52.52l15.82-2.61q.61-.1.51-.7l-1.36-8.41a.98.97-9.8 0 0-1.14-.8l-26.82 5.03a.83.83 0 0 0-.57 1.23c.91 1.57.87 3.78 1.09 5.01q3.99 21.43 7.86 42.87.09.5.58.41l27.34-4.91a.38.37-10.1 0 0 .31-.43l-1.37-8.73q-.14-.86-1-.69l-15.99 3.11a.55.54 79.8 0 1-.64-.45l-1.38-9.35a.61.61 0 0 1 .5-.69l14.69-2.58a1.08 1.07-10.5 0 0 .87-1.26l-1.61-8.05q-.1-.53-.64-.44l-14.68 2.61q-1.37.24-1.57-1.14l-1.19-8.5q-.06-.45.39-.53m197.61 35.04a.94.94 0 0 1 1.22-.57l13.64 5.06a.94.94 0 0 0 1.22-.57l2.64-7.76a.94.94 0 0 0-.59-1.19l-13.76-4.74a.94.94 0 0 1-.57-1.21l2.98-7.99a.94.94 0 0 1 1.19-.56l14.94 5.32a.94.94 0 0 0 1.21-.58l2.58-7.57a.94.94 0 0 0-.57-1.19l-25.54-9.09a.94.94 0 0 0-1.2.57l-16.2 45.67a.94.94 0 0 0 .55 1.2l8.86 3.35a.94.94 0 0 0 1.22-.57l6.18-17.58M321.38 100.1a.47.47 0 0 1-.6-.27l-13.66-37.16a.47.47 0 0 0-.6-.27l-9.72 3.64a.47.47 0 0 0-.28.6l17.16 46.35a.47.47 0 0 0 .6.28l26.1-9.63a.47.47 0 0 0 .27-.6l-3.16-8.45a.47.47 0 0 0-.6-.28l-15.51 5.79m-66.74 22.48c6.09-3.4 12.13-6.49 13.86-13.91 2.79-12.02-8.51-22.67-20.5-18.39q-4.72 1.68-19.48 11.36-.41.27-.16.69l24.94 42.15a.66.66 0 0 0 .91.23l8.49-5.04a.81.8 59.3 0 0 .28-1.11l-8.72-14.58a1.01 1-30.1 0 1 .38-1.4m430.84 23.87c16.49 4.4 27.77-15.88 13.28-26.97q-6.64-5.09-13.8-10.5-1.11-.83-1.94.27l-29.32 38.68q-.28.37.09.66l8.13 6.17a.63.63 0 0 0 .88-.12l11.26-14.8a.48.48 0 0 1 .86.31q-.27 9.64-.11 19.61c.02 1.8-.29 4.05.97 5.45q1.88 2.08 10.15 7.5.47.31.44-.25l-1.33-25.65q-.03-.48.44-.36m-508.57 23.26a.33.33 0 0 1 .41-.49l27.31 14.51a.33.33 0 0 0 .37-.05l4.59-4.16a.33.33 0 0 0 .09-.38l-12.47-28.52a.33.33 0 0 1 .52-.38l21.82 20.06a.33.33 0 0 0 .45 0l7.68-7.32a.33.33 0 0 0-.01-.49l-37.1-33.34a.33.33 0 0 0-.44.01l-8.41 7.83a.33.33 0 0 0-.09.36l11.3 28.2a.33.33 0 0 1-.45.41l-27.32-13.33a.33.33 0 0 0-.37.05l-8.54 7.75a.33.33 0 0 0-.04.45l30.65 39.59a.33.33 0 0 0 .48.04l7.75-7.24a.33.33 0 0 0 .03-.45l-18.21-23.11m584.853 7.845a26.23 25.5-39.9 0 0-36.48-2.738 26.23 25.5-39.9 0 0-3.766 36.388 26.23 25.5-39.9 0 0 36.48 2.738 26.23 25.5-39.9 0 0 3.766-36.388M124.82 215.95a.57.57 0 0 1-.14-.79l9.42-13.17a.57.57 0 0 0-.12-.79l-7.05-5.24a.57.57 0 0 0-.81.12l-16.04 22.56a.57.57 0 0 0 .13.79l40.16 28.59a.57.57 0 0 0 .79-.14l16.04-22.56a.57.57 0 0 0-.14-.8l-7.12-5.03a.57.57 0 0 0-.79.13l-9.54 13.3a.57.57 0 0 1-.79.13l-7.57-5.44a.57.57 0 0 1-.13-.79l9.1-12.6a.57.57 0 0 0-.13-.8l-7.2-5.12a.57.57 0 0 0-.8.14l-8.93 12.74a.57.57 0 0 1-.8.14l-7.54-5.37m693.19 54.06c.35-13.56-8.38-25.9-21.6-29.48q-12.72-3.44-22.47 4.85c-15.31 13.01-10.34 35.9 5.29 45.57a.89.89 0 0 0 1.21-.26l4.99-7.47a.9.89 32.7 0 0-.28-1.27c-8.97-5.49-12.68-18.69-4.42-26.49 10.82-10.21 26.19.33 26.34 13.45q.01.81.15 1.61.09.51.6.49l9.59-.39a.63.62-1 0 0 .6-.61m-724.31-.69a.79.79 0 0 1-.37-1.06l4.57-9.43a.79.79 0 0 0-.37-1.06L90 254.2a.79.79 0 0 0-1.05.37l-14.47 30.5a.79.79 0 0 0 .37 1.04l7.56 3.71a.79.79 0 0 0 1.07-.38l4.32-9.57a.79.79 0 0 1 1.06-.38l35.27 16.74a.79.79 0 0 0 1.05-.37l4.17-8.75a.79.79 0 0 0-.38-1.05L93.7 269.32m726.98 55.91a.74.74 0 0 1 .49-.92l17.88-5.55a.74.74 0 0 0 .49-.93l-2.87-9.29a.74.74 0 0 0-.92-.49l-46.81 14.11a.74.74 0 0 0-.5.92l2.85 9.46a.74.74 0 0 0 .92.49l18.06-5.51a.74.74 0 0 1 .93.49l4.38 14.46a.74.74 0 0 1-.5.92l-18.07 5.47a.74.74 0 0 0-.49.92l2.8 9.44a.74.74 0 0 0 .92.49l46.83-14.17a.74.74 0 0 0 .5-.91l-2.75-9.44a.74.74 0 0 0-.93-.5l-18.01 5.45a.74.74 0 0 1-.92-.49l-4.28-14.42M83.96 391.34c2.69 3.39 1.65 11.58-3.18 12.8q-3.76.94-11.56-.14-12.11-1.68-24.14-3.49a.81.81 0 0 0-.92.71l-1.13 10.28a.46.46 0 0 0 .41.51q16.79 1.97 33.56 4.24c13.7 1.85 20.33-10.92 19.6-22.6-.72-11.37-7.53-15.72-18.1-16.94q-14.41-1.67-29.72-3.83a.99.98-83 0 0-1.12.88l-.96 9.99q-.05.52.47.57 10.21 1.05 25.08 3.03c3.96.53 9.25.89 11.71 3.99m742.85 11.38a.62.62 0 0 1 .69.56l1.6 15.65a.62.62 0 0 0 .71.55l8.66-1.18a.62.62 0 0 0 .53-.68l-1.74-15.27a.62.62 0 0 1 .55-.69l9.2-1.04a.62.62 0 0 1 .69.56l1.5 16.42a.62.62 0 0 0 .69.56l8.62-.96a.62.62 0 0 0 .55-.68L856.28 389a.62.62 0 0 0-.68-.55l-48.93 5.15a.62.62 0 0 0-.55.68l2.88 27.34a.62.62 0 0 0 .69.55l8.54-.95a.62.62 0 0 0 .55-.68l-1.64-15.92a.62.62 0 0 1 .54-.68l9.13-1.22m-781.79 90.7l49.23-3.61a.59.59 0 0 0 .54-.63l-1.03-14.03a25.31 24.68 85.8 0 0-26.46-23.43l-1.18.09a25.31 24.68 85.8 0 0-22.76 27.05l1.03 14.02a.59.59 0 0 0 .63.54m808.84-.11c7.34-8.9 8.58-25.33-3.69-30.98-8.58-3.96-14.68 1.22-18.91 8.29-1.65 2.75-4.16 8.27-7.23 9.47-4.47 1.74-6.92-3.88-6.18-7.38q1.42-6.68 6.37-11.51.48-.46-.07-.84l-8.28-5.76a.62.62 0 0 0-.82.11q-6.93 8.09-7.72 18.79c-.71 9.59 4.24 18.99 14.9 19.23 10.3.23 14.61-10.92 18.79-18.2 2.6-4.51 7.95-2.37 8.05 2.47q.12 6.29-3.84 10.75a.74.74 0 0 0 .17 1.13l7.63 4.58q.47.28.83-.15m-798.4 54.2a.46.46 0 0 0 .57.31l28.76-8.32a.46.46 0 0 1 .48.74L61.4 567.36a.46.46 0 0 0-.1.43l2.87 10.23a.46.46 0 0 0 .57.32l47.62-13.69a.46.46 0 0 0 .31-.57l-2.89-9.99a.46.46 0 0 0-.57-.31l-28.68 8.27a.46.46 0 0 1-.47-.74l23.78-27.04a.46.46 0 0 0 .09-.43l-2.88-10.29a.46.46 0 0 0-.58-.32l-47.64 13.71a.46.46 0 0 0-.32.57l2.95 10m786.08-16.25a.83.83 0 0 0-1.02.61l-2.41 10.02a.83.83 0 0 1-1.02.61l-37.59-10.16a.83.83 0 0 0-1.01.58l-2.62 9.35a.83.83 0 0 0 .58 1.03l37.7 10.11a.83.83 0 0 1 .58 1.03l-2.86 9.9a.83.83 0 0 0 .58 1.04l8.05 2.11a.83.83 0 0 0 1.01-.59l8.67-32.53a.83.83 0 0 0-.6-1.02l-8.04-2.09m-37.82 76.46a.67.67 0 0 1 .9-.32l8.17 3.91a.67.67 0 0 1 .32.89l-6.83 14.45a.67.67 0 0 0 .32.89l7.68 3.72a.67.67 0 0 0 .9-.31l11.67-24.8a.67.67 0 0 0-.32-.9l-44.4-20.87a.67.67 0 0 0-.9.33l-11.63 24.68a.67.67 0 0 0 .3.88l7.65 3.84a.67.67 0 0 0 .91-.32l6.83-14.66a.67.67 0 0 1 .89-.32l8.33 3.82a.67.67 0 0 1 .33.89l-6.53 14a.67.67 0 0 0 .33.89l7.68 3.56a.67.67 0 0 0 .89-.32l6.51-13.93m-676.976-10.393a.87.87 0 0 0-1.163-.401l-43.735 21.331a.87.87 0 0 0-.401 1.163l4.191 8.592a.87.87 0 0 0 1.163.401l43.735-21.331a.87.87 0 0 0 .4-1.163l-4.191-8.592m11.787 61.443a.59.59 0 0 1 .13-.82l15.64-11.18a.59.59 0 0 0 .14-.83l-5.98-8.15a.59.59 0 0 0-.81-.13l-40.08 28.66a.59.59 0 0 0-.13.83l6.1 8.22a.59.59 0 0 0 .82.12l15.28-11.17a.59.59 0 0 1 .83.14l8.98 12.59a.59.59 0 0 1-.14.82l-15.49 11.09a.59.59 0 0 0-.14.83l6 8.17a.59.59 0 0 0 .81.13l40.04-28.65a.59.59 0 0 0 .13-.83l-5.95-8.2a.59.59 0 0 0-.82-.14l-15.52 11.16a.59.59 0 0 1-.82-.14l-9.02-12.52m622.56.76a.52.52 0 0 1-.29.94l-23.74.42a.8.78-71 0 0-.63.32l-7.86 10.84a.48.48 0 0 0 .42.76l25.35-1.96a.82.82 0 0 1 .85 1.05l-.66 2.23q-.14.5-.14 1.02.13 9.34 7.67 13.6 7.59 4.29 14.09.61 3.34-1.88 8.77-9.31 3.96-5.41 7.88-10.94.3-.42-.12-.73l-39.72-28.61a.89.88-54 0 0-1.23.2l-5.42 7.44a1.19 1.19 0 0 0 .27 1.68l14.51 10.44"/><path vector-effect="non-scaling-stroke" d="M502.895 80.412a15.42 13.4 99.2 0 0 15.693-13.079 15.42 13.4 99.2 0 0-10.762-17.364 15.42 13.4 99.2 0 0-15.693 13.079 15.42 13.4 99.2 0 0 10.762 17.364M242.71 104.36l6.1 10.38a.87.87 0 0 0 1.19.31l2.37-1.39a8.76 6.42-30.4 0 0 4.31-9.97l-.48-.81a8.76 6.42-30.4 0 0-10.8-1.1l-2.38 1.39a.87.87 0 0 0-.31 1.19m444.34 18.29l-7.36 9.63a.77.77 0 0 0 .14 1.08l2.61 1.99a7.15 6.09 37.4 0 0 9.38-.49l.9-1.18a7.15 6.09 37.4 0 0-1.98-9.18l-2.61-1.99a.77.77 0 0 0-1.08.14m66.615 61.932a15.44 13.34-39.2 0 0-20.396-.579 15.44 13.34-39.2 0 0-3.534 20.096 15.44 13.34-39.2 0 0 20.396.579 15.44 13.34-39.2 0 0 3.534-20.096"/></g><path vector-effect="non-scaling-stroke" d="M568.84 217.4c5.07-10.13 3.59-25.23-10.97-25.21-5.96.01-10.4 5.29-12.68 10.42-4.92 11.03-13.98 21.38-27.03 20-4.92-.52-9.51-.76-14.41-.73-5.19.03-6.08 5.57-5.89 9.71a1.28 1.28 0 0 0 1.42 1.22c9.29-1.02 16.77 3.74 26.07-.92 8.95-4.48 12.53-14.76 17.75-21.83 3.49-4.72 8.95-6.68 14.7-5.31q9.01 2.16 10.28 12.52a.4.4 0 0 0 .76.13m59.28 10.84c1.05-9.3-3.7-18.91-11.77-23.29q-14.66-7.95-26.32.72-3.53 2.63-7.93 9.08c-6.86 10.06-13.57 21.28-23.39 28.78q-23.53 17.97-53.16 11.34c-6.44-1.45-10.5-4.03-13.4-9.72q-.25-.49-.79-.61-12.45-2.7-15.25 9.35a1.18 1.18 0 0 0 1.39 1.42c8.28-1.74 15.36 1.97 22.77 5.1q7.82 3.3 16.19 4.8c23.13 4.12 40.65-9.4 53.09-27.17 4.27-6.1 8.71-14.21 13.77-18.35 12.38-10.14 29.55-6.02 37.7 7.12 1.94 3.13 2.79 7.14 4.05 10.87a.68.68 0 0 0 1.3-.04q1.19-4.41 1.75-9.4" class="H"/><path vector-effect="non-scaling-stroke" d="M567.26 217.78c-1.1-2.35-1.59-5.03-2.85-6.93-4.87-7.37-16.57-6.91-20.95.89-5.49 9.79-11.58 20.54-23.49 23.11q-2.92.64-7.96-.01-6.78-.86-13.64-1.07-.49-.01-.9.26-3.98 2.64-4.43 6.81c-.69 6.45 5.01 10.59 10.74 12.13 14.21 3.82 28.15 3.74 41.24-3.1 4.93-2.58 10.9-8.29 13.98-11.84q6.77-7.8 8.39-19.4.06-.44-.13-.85m54.86 15.1c-2.29-9.02-9.77-15.11-18.47-17.04-11.59-2.56-20.83 3.51-26.67 13.37q-4.76 8.02-12.85 17.43c-14.07 16.37-31.95 24.83-53.87 18.36q-7.91-2.34-15.47-5.64-5.97-2.6-8.29-3.07-4.97-.99-9.01.42c-5.8 2.01-5.99 7.09-5.57 12.26.64 7.84 9.37 15.3 16.04 18.55q14.97 7.28 30.84 10.27c2.9.55 6.55.67 9.83 1.25q5.1.9 7.34 1.02c29.1 1.5 57.51-13.18 76.78-34.85 6.73-7.56 8.76-15.73 11.69-25.08a1.18 1.15-50.8 0 0-.08-.88q-1.21-2.32-2.24-6.37" stroke="#6f1517"/><path vector-effect="non-scaling-stroke" d="M454.8 307.79c4.57-11.1 8.67-23.71 9.01-35.53q.19-6.91-.37-10.48-3-19.08-20.21-27.4c-16.26-7.87-32.22-4.56-47.95 3.49q-14.41 7.37-28.74 14.85c-14.26 7.44-27.58 9.06-43.07 5.82-4.73-.99-9.75-2.82-14.57-4.45-9.68-3.26-15.76-4.46-21.57 4.73a.57.57 0 0 0 .74.82q4.51-2.21 9.69-.67c5.87 1.75 13.83 5.31 19.95 6.83q24.05 5.97 46.34-5.92 12.75-6.79 25.71-13.15c11.69-5.73 25.69-9.28 38.25-6.62 14.46 3.06 27.04 14 30.5 28.82.82 3.51.6 7.62.62 11.39.05 7.52-2.4 15.46-3.87 22.83-.28 1.38-1.52 3.3-1.2 4.58q.29 1.15.74.06m-28.51 52.98c17.7 5.03 32.77 12.85 39.08 31.28a.64.63 56 0 0 1.08.21l7.14-8.23q.5-.58.02-1.16c-1.16-1.41-1.97-2.35-2.63-4.11-5.81-15.29-22.96-24.86-38.37-27.5a.94.93 20.8 0 0-.94.42l-5.51 8.76a.23.22 24.6 0 0 .13.33m-154.94 36.12c4.86-1.44 9.04-2.88 13.98-2.34q15.46 1.7 27.28 12.11 2.62 2.3 3.11 3.17 20.35 35.94 37.88 81.8 7.46 19.52 28.38 23.07c3.17.53 6.43-.34 9.67-.74 6.43-.8 10.91-4.02 15.08-8.71a.51.51 0 0 0-.47-.84q-4.67.81-9.67 1.44c-15.51 1.94-29.23-10.46-34.62-24.09q-14.94-37.74-32.94-69.63c-1.6-2.83-4.87-9.43-7.21-11.67-6.95-6.63-15.42-11.4-25.12-12.21q-7.09-.6-9.7-.19-9.53 1.49-16.04 8.19a.39.39 0 0 0 .39.64m191.08 114.78q16.45-20.32 21.45-45.85c1.07-5.48 1.32-12.34 2.26-18.56q1.13-7.42.17-22.36-.1-1.58-.9-6.23c-.51-3.05.26-6.92-2.01-9.36q-.36-.39-.76-.05l-6.64 5.62a1.2 1.17 69.9 0 0-.42.93c.06 3.89 1.61 7.99 1.95 11.11q.69 6.26 1.12 12.55.41 5.99-.19 12.55c-.67 7.35-1.17 14.64-2.71 21.8q-1.09 5.06-2.31 10.08-3.93 16.06-13.83 29.82a.07.06-82.8 0 0 .07.1q1.61-.75 2.75-2.15m121.56-71.46a.36.35 19.8 0 0-.26-.55q-.58-.05-1.2.43-13.66 10.6-30.14 15.92-13.14 4.25-26.62 7-7.8 1.59-11.19 3.36-7.41 3.88-11.79 11.14a.66.66 0 0 0 .94.89c5.22-3.57 11.76-4.18 19.51-5.41q9.12-1.44 22.98-6.05c15.13-5.04 28.85-13.5 37.77-26.73" class="H"/><path vector-effect="non-scaling-stroke" d="M54.19 481.4l29.17-2.19a.62.62 0 0 0 .58-.66l-.09-1.17a14.66 14.61-4.3 0 0-15.72-13.47l-1.17.09a14.66 14.61-4.3 0 0-13.53 15.67l.09 1.16a.62.62 0 0 0 .67.57m724.62 190.9l-9.92-7.24a.67.67 0 0 0-.94.15l-1.98 2.71a7.23 5.88-53.9 0 0 .49 9.31l1.5 1.1a7.23 5.88-53.9 0 0 9.02-2.38l1.97-2.72a.67.67 0 0 0-.14-.93" stroke="#e98370"/></g><path fill="#fff" d="M0 0h900v900H0V0zm339.45 136.45c26.09-8.88 51.79-15.35 79.8-18.21q28.03-2.85 60.44-.29c7.85.63 16.08 1.92 24.07 3.13 20.24 3.06 40.36 8.92 59.7 15.53q5.47 1.87 11.88 4.73c9.82 4.38 20.16 8.68 29 13.54q21.31 11.73 41.21 25.73 4.58 3.23 9.7 7.56c7.88 6.67 15.9 13.23 23.09 20.31 6.96 6.86 14.12 13.55 20.33 21.18 6.26 7.68 13.25 15.91 18.46 23.16 18.63 25.92 34.34 55.04 44.34 85.42q8.57 26.04 12.45 46.84 5.21 27.88 5.58 62.26c.08 7.71-.84 15.68-1.42 23.58q-.8 10.84-1.76 17.6-3.2 22.42-8.96 44.3c-3.19 12.09-8.07 24.74-12.51 37.02q-2.06 5.72-10.74 23.61c-4.55 9.38-10.3 18.4-15.7 27.47-4.16 6.96-9.34 13.53-14.04 20.34-7.57 10.94-14.14 18.89-7.9 30.16q2.04 3.69 9.16 10.14 24.77 22.43 33.2 29.59c8.13 6.91 19.18 6.18 26.76-.55q2.22-1.97 8.25-10.17 5.77-7.85 13.7-19.39 24.31-35.37 40.05-73.22 9.1-21.89 13.23-35.29 3.03-9.85 9.86-37.28 1.88-7.51 6.08-35.28c.99-6.55 1.42-13.28 2.04-19.98q.76-8.09.92-15.01.76-31.55-.19-45.23-1.64-23.44-3.98-38.53-5.44-35.14-17.59-71.49c-12.45-37.27-31.08-73.07-53.41-105.33-5.7-8.23-12.55-16.69-19.04-24.85q-6.95-8.74-12.9-15.28c-28.34-31.11-59.95-56.67-95.96-78.7q-8.78-5.37-17.35-9.93c-40.62-21.58-84.92-36.97-130.42-44.25q-24.52-3.92-39.38-4.9-15.88-1.05-42.76-.49-10.45.22-19.96 1.12-25.05 2.38-46.26 6.44-26.74 5.13-55.17 14.89c-8.67 2.97-18.02 6.83-27.01 10.4q-9.63 3.82-18.28 8.09c-9.89 4.9-20.08 9.87-29.31 15.38q-29.25 17.48-55.86 38.75-7.55 6.03-15.17 13.02c-24.33 22.31-43.62 44.28-62.75 71.25-7.12 10.04-13.58 21.1-20.03 31.9-7.44 12.47-13.49 25.55-19.73 38.63q-2.03 4.25-3.86 9.1l-8.71 23.1q-9.33 27.16-13.67 48.94-5.97 29.93-6.89 40.75c-.79 9.37-1.85 18.78-2 28.02-.31 19.43-.84 39.4 1.27 58.72q3.36 30.76 10.4 60.88 1.61 6.85 4.44 16.1c5.39 17.57 10.71 34.62 18.93 52.53 4.76 10.38 9.69 21.24 14.92 30.73q17.41 31.56 39.34 60.2 3.46 4.52 6.29 6.52c8.34 5.88 17.59 6.46 25.63-.41q9.43-8.05 34.24-30.19c6.99-6.24 12.28-14.77 9.61-24.22q-1.02-3.62-6.42-11.23c-6.3-8.89-13.3-17.95-18.68-26.73q-22.7-37.08-34.8-75.69-7.62-24.3-11.69-53.32-1.29-9.19-1.94-19.91-.81-13.25-.89-22.5c-.29-32.05 4.33-64.64 13.64-95.81q4.13-13.85 6.11-18.96 10.6-27.44 24.91-53.09c4.09-7.35 9.17-14.43 14.05-21.51q4.97-7.23 11.57-15.38c5.84-7.2 11.5-14.91 17.71-21.37q19.13-19.9 37.73-34.42 32.55-25.41 72.36-43.05 8.47-3.75 18.64-7.22zm245.24 154.14q-.84-.08-.72-.7c13.51-7.95 28.6-19.31 36.42-33.9 2.38-4.43 3.67-10.55 5.97-15.73 5.82-13.09 3.94-27.08-8.14-35.75q-5.44-3.9-12.64-4.5c-10.25-.86-18.7 4.55-23.95 13.12-6.45 10.55-14.06 21.44-23.35 29.67-2.08 1.84-4.84 2.71-7.06 4.8q-.11.11-.25.04l-.22-.12q-.24-.12-.04-.31 1.56-1.5 3.25-2.81c6.58-5.12 11.23-12.16 13.65-20.07q1.09-3.58 2.5-6.4 2.33-4.69 2.67-7.39 2.09-16.95-14.25-19.36c-5.3-.78-10.83 3.96-13.13 8.37-5.08 9.71-10.19 20.05-22.11 21.78-9.71 1.4-28.54-7.57-26.47 11.47a.86.86 0 0 1-.43.84q-5.52 3.06-4.46 9.26.12.68-.57.55-13.15-2.6-16.58 9.97a1 .98 38.8 0 0 .09.75l.75 1.3a.69.68-32.3 0 1-.21.9c-2.46 1.66-4.4 3.6-4.89 6.69q-1.28 8.06 3.86 14.82 5.92 7.79 14.55 11.54 11.97 5.22 24.57 8.51c7.74 2.03 16.37 2.55 24.66 3.52q.59.07 1.15.01 1.05-.1 1.15-.14 2.69-.89.43.82-19.15 14.4-33.4 34.08-11.79 16.29-23.45 32.67c-2.75 3.86-7.54 7.86-8.82 12.34q-.14.52-.56.18-1.63-1.29-2.26-2.79c-2.36-5.6-4.86-9.99-9.48-14.07q-12.4-10.93-28.92-14.25a.63.63 0 0 1-.42-.93c.76-1.36 1.92-2.59 2.59-3.86q5.33-10.12 10.9-20.08 11.49-20.54 16.78-43.36c1.73-7.47 1.82-14.34.6-21.56-3.01-17.75-17.42-29.1-34.75-31.52-18.93-2.64-36.71 8.63-52.61 17.01q-14.99 7.9-17.23 8.8c-16.8 6.72-33.87 4.38-50.51-1.96-8.81-3.35-17.06-4.28-22.65 5.21q-1.69 2.88-2.74 4.14c-6.15 7.45-9.36 16.19-7.97 26.04 1.96 13.89 5.77 26.71 20.11 32.14 3.56 1.34 10.31 2.46 14.94 2.35q15.66-.37 35.96-4.23c13.65-2.6 27.3-5.96 41.13-7.53 8.78-1 20.87.03 26.31 8.19 3.88 5.83-.07 15.49-3.8 20.51q-10.84 14.57-23.61 27.44c-6.6 6.66-13.39 13.83-20.49 20.32q-.34.31-.38.77l-.11 1.26a1.2 1.2 0 0 1-.4.8l-6.98 6.14a.78.78 0 0 0 .28 1.34c26.25 8.07 45.67 22.08 54.91 48.76q4.68 13.51 3.21 29.58c-.62 6.74-4.15 20.36-8.64 25.38q-1.31 1.47-3.5 1.94c-7.11 1.52-14.65 2.52-21.57-.62-14.86-6.76-18.75-17.72-24.98-33.19q-9.73-24.16-24.42-50.94-7.86-14.32-10.17-17.2c-12-14.97-37.69-20.97-52.81-6.82q-4.17 3.9-5.6 5.09-3.43 2.84-5.61 5.59c-7.45 9.43-3.6 21.9 3.02 30.94 3.09 4.21 8.28 8.25 11.45 11.53 8.2 8.49 13.25 22.86 16.9 34.08q1.04 3.2 2.71 11.41c6.37 31.28 30.12 51.88 60.62 58.79 4.8 1.09 10.14 1.21 15.29 1.74q6.92.71 11.5.41c20.35-1.32 42.07-7.23 58.84-19.46q5.12-3.72 12.79-11.48 7.56-7.63 11.76-12.59c9.65-11.4 15.69-26.28 19.61-41.51 2.3-8.93 2.55-18.59 3.42-28.01.5-5.38.13-10.33-.16-15.64-.21-3.92-1.4-8.46-1.57-13.01q-.07-1.94-1.45-3.62-.35-.42-.08-.9.78-1.32 1.94-2.38c17.41-15.78 41.37-39.2 67.54-32.68 20.38 5.07 32.78 23.25 35.12 43.38q.48 4.09-.46 10.99c-.83 6.09-2.69 8.75-7.7 12.63-14.75 11.43-33.34 17.7-51.52 21-4.34.79-9.02 1.72-12.16 2.99q-10.11 4.08-15.37 13.32c-2.54 4.47-6.86 7.15-9.44 11.15-5.16 8.04-6.48 18.68-2.26 27.33 7.28 14.95 25.15 14.64 39.13 10.09 11.65-3.8 24.04-9.05 34.07-14.3q22.62-11.82 37.89-32.8c9.14-12.55 18.05-25.67 23.74-40.2q7.16-18.28 12.11-37.28c2.72-10.46 3.02-18.34 3.49-28.04 1.73-35.65-15.82-77.58-55.85-82.59zm-197.17 405.9q-.82 27.84 4.15 51.02c7.01 32.68 25.26 64.33 48.18 89.25q.9.98 1.81 0c22.11-23.84 39.5-53.42 47.11-84.93q6.43-26.63 5.24-54.42c-.61-49.55-20.81-97.88-52.15-136.01a1.39 1.38-44.8 0 0-2.14 0q-33.95 40.94-46.94 93.13-4.76 19.14-5.26 41.96zm-107.88-63.57c-2.52 70.54 22.5 141.88 84.85 180.43 1.49.92 2.66 2.46 4.5 3.27q.48.37-.2.69a.57.56-41.2 0 1-.52-.03q-10.81-6.42-20.81-13.54-38.54-27.47-59.71-69.8a.88.88 0 0 0-.67-.47q-55.68-6.57-108.1 12.52-.6.22-.36.82 2.62 6.34 7.07 11.58.19-.05.1.28-.07.27-.34.32-3.66.67-6.84 2.56a.6.6 0 0 0-.21.83q25.92 42.94 67.06 71.63c40.86 28.5 89.51 39.03 138.51 28.24 6.72-1.48 14.37-2.54 20.65-5.38q2.51-1.15-.24-1.4-13.17-1.19-27.01-7.15 14.67-1.78 27.32-6.61 1.98-.75-.13-.88c-8.57-.52-18.22-4.28-26.31-7.12-18.08-6.34-35.27-21.47-48.63-36.06q-.4-.44-.5-.9a.07.06-78.9 0 1 .1-.07c10.9 9.31 23.15 15.25 36.29 20.35 1.24.48 2.71.65 4 .83 5.17 1.53 10.42 4.76 14.08 6.48q12.81 6.04 25.96 10.44a.43.42 76.3 0 0 .43-.71q-9.76-9.56-16.87-20.64 8.16 3.92 16.71 5.98.79.19.2-.37-14.41-14.04-23.66-31.9-2.39-4.62-3.82-9.52a.18.17 22.3 0 1 .32-.13q4.48 7.89 10.11 15.02 4.4 5.56.78-.54-6.36-10.74-12.51-24.68-.5-3.61-.92-7.12-.37-3.04-1.53-6.96-1.23-4.11-1.87-8.35c-.38-2.59-1.41-5.56-.81-8.84q1.76 5.38 3.46 10.75c1.02 3.23 2.68 6.06 4.26 9.01q.05.09.06-.02.02-.15.04-.3.04-.31-.08-.59c-4.75-11.25-6.87-23.83-8.95-36.61q-1.78-18.25-.31-28.7 1.28-9.14.1-13.92-.06-6.07.99-11.41.35-1.78-.98-2.93-36.03-31.12-81.29-46.03-6.21-2.04-12.47-3.28a.48.48 0 0 0-.57.45l-.73 20.48zm227.42 44q-1.19 1.85-1.03 3.33 1.54 13.86 1.25 27.69-1.33 16.28-3.48 26.31-4.06 18.86-13.5 39.72a.25.24-77.6 0 0 .22.35q.29.01.39-.18 5.79-10.48 10.97-22.61-1.4 12.59-4.99 21.59-2.93 7.36-4.12 12.07-8.85 20.31-24.87 35.62a.35.35 0 0 0 .35.58l15.52-5.36q.21-.04.34-.02.36.06.15.36-6.99 10.3-15.89 19.02a.52.52 0 0 0 .51.87c60.37-18.35 104.55-59.46 123.48-119.56q12.13-38.48 11.49-79.2l-1.26-24.8q-.04-.79-.82-.64-7.2 1.45-14.34 3.89-45.45 15.53-81.13 47.28a1.79 1.78 66.3 0 0-.59 1.53l1.35 12.16zm1.38 171.44q-12.92 7.09-27.33 8.79a.44.44 0 0 0-.06.87q11.73 3.1 23.73 5.28 47.21 8.6 91.38-7.44c44.9-16.31 84.08-52.73 108.52-93.33a.88.87-61.2 0 0-.35-1.23q-2.52-1.26-5.47-1.91-.44-.1-.7-.31-.36-.3-.48-.64l6.99-11.12a.78.78 0 0 0-.39-1.14c-33.93-12.82-69.53-16.78-106.72-13.01-1.48.15-2.33.9-2.96 2.15q-15.11 30-39.53 52.85c-3.6 3.37-8.83 7.5-13.08 11.45a.28.28 0 0 0 .34.45l23.42-14.08a.36.36 0 0 1 .45.56c-17.18 18.28-37.51 33.78-60.99 41.79q-5.1 1.74.27 1.28 10.84-.94 20.4-6.06.32-.16.38.19.05.32-.27.51-14.25 8.72-31.15 15.12-6.63 2.51-13.56 2.24a.35.35 0 0 0-.15.68q12.72 5.29 27.31 6.06z"/><path d="M419.25 118.24c-28.01 2.86-53.71 9.33-79.8 18.21q-10.17 3.47-18.64 7.22-39.81 17.64-72.36 43.05-18.6 14.52-37.73 34.42c-6.21 6.46-11.87 14.17-17.71 21.37q-6.6 8.15-11.57 15.38c-4.88 7.08-9.96 14.16-14.05 21.51q-14.31 25.65-24.91 53.09-1.98 5.11-6.11 18.96c-9.31 31.17-13.93 63.76-13.64 95.81q.08 9.25.89 22.5.65 10.72 1.94 19.91 4.07 29.02 11.69 53.32 12.1 38.61 34.8 75.69c5.38 8.78 12.38 17.84 18.68 26.73q5.4 7.61 6.42 11.23c2.67 9.45-2.62 17.98-9.61 24.22Q162.73 703 153.3 711.05c-8.04 6.87-17.29 6.29-25.63.41q-2.83-2-6.29-6.52-21.93-28.64-39.34-60.2c-5.23-9.49-10.16-20.35-14.92-30.73-8.22-17.91-13.54-34.96-18.93-52.53q-2.83-9.25-4.44-16.1-7.04-30.12-10.4-60.88c-2.11-19.32-1.58-39.29-1.27-58.72.15-9.24 1.21-18.65 2-28.02q.92-10.82 6.89-40.75 4.34-21.78 13.67-48.94c2.37-6.9 5.8-15.39 8.71-23.1q1.83-4.85 3.86-9.1c6.24-13.08 12.29-26.16 19.73-38.63 6.45-10.8 12.91-21.86 20.03-31.9 19.13-26.97 38.42-48.94 62.75-71.25q7.62-6.99 15.17-13.02 26.61-21.27 55.86-38.75c9.23-5.51 19.42-10.48 29.31-15.38q8.65-4.27 18.28-8.09c8.99-3.57 18.34-7.43 27.01-10.4q28.43-9.76 55.17-14.89 21.21-4.06 46.26-6.44 9.51-.9 19.96-1.12 26.88-.56 42.76.49 14.86.98 39.38 4.9c45.5 7.28 89.8 22.67 130.42 44.25q8.57 4.56 17.35 9.93c36.01 22.03 67.62 47.59 95.96 78.7q5.95 6.54 12.9 15.28c6.49 8.16 13.34 16.62 19.04 24.85 22.33 32.26 40.96 68.06 53.41 105.33q12.15 36.35 17.59 71.49 2.34 15.09 3.98 38.53.95 13.68.19 45.23-.16 6.92-.92 15.01c-.62 6.7-1.05 13.43-2.04 19.98q-4.2 27.77-6.08 35.28-6.83 27.43-9.86 37.28-4.13 13.4-13.23 35.29-15.74 37.85-40.05 73.22-7.93 11.54-13.7 19.39-6.03 8.2-8.25 10.17c-7.58 6.73-18.63 7.46-26.76.55q-8.43-7.16-33.2-29.59-7.12-6.45-9.16-10.14c-6.24-11.27.33-19.22 7.9-30.16 4.7-6.81 9.88-13.38 14.04-20.34 5.4-9.07 11.15-18.09 15.7-27.47q8.68-17.89 10.74-23.61c4.44-12.28 9.32-24.93 12.51-37.02q5.76-21.88 8.96-44.3.96-6.76 1.76-17.6c.58-7.9 1.5-15.87 1.42-23.58q-.37-34.38-5.58-62.26-3.88-20.8-12.45-46.84c-10-30.38-25.71-59.5-44.34-85.42-5.21-7.25-12.2-15.48-18.46-23.16-6.21-7.63-13.37-14.32-20.33-21.18-7.19-7.08-15.21-13.64-23.09-20.31q-5.12-4.33-9.7-7.56-19.9-14-41.21-25.73c-8.84-4.86-19.18-9.16-29-13.54q-6.41-2.86-11.88-4.73c-19.34-6.61-39.46-12.47-59.7-15.53-7.99-1.21-16.22-2.5-24.07-3.13q-32.41-2.56-60.44.29zm81.278-27.168a26.27 25.49 100.6 0 0 29.887-21.133 26.27 25.49 100.6 0 0-20.223-30.511 26.27 25.49 100.6 0 0-29.887 21.133 26.27 25.49 100.6 0 0 20.223 30.511zM377.21 52.52l15.82-2.61q.61-.1.51-.7l-1.36-8.41a.98.97-9.8 0 0-1.14-.8l-26.82 5.03a.83.83 0 0 0-.57 1.23c.91 1.57.87 3.78 1.09 5.01q3.99 21.43 7.86 42.87.09.5.58.41l27.34-4.91a.38.37-10.1 0 0 .31-.43l-1.37-8.73q-.14-.86-1-.69l-15.99 3.11a.55.54 79.8 0 1-.64-.45l-1.38-9.35a.61.61 0 0 1 .5-.69l14.69-2.58a1.08 1.07-10.5 0 0 .87-1.26l-1.61-8.05q-.1-.53-.64-.44l-14.68 2.61q-1.37.24-1.57-1.14l-1.19-8.5q-.06-.45.39-.53zm197.61 35.04a.94.94 0 0 1 1.22-.57l13.64 5.06a.94.94 0 0 0 1.22-.57l2.64-7.76a.94.94 0 0 0-.59-1.19l-13.76-4.74a.94.94 0 0 1-.57-1.21l2.98-7.99a.94.94 0 0 1 1.19-.56l14.94 5.32a.94.94 0 0 0 1.21-.58l2.58-7.57a.94.94 0 0 0-.57-1.19l-25.54-9.09a.94.94 0 0 0-1.2.57l-16.2 45.67a.94.94 0 0 0 .55 1.2l8.86 3.35a.94.94 0 0 0 1.22-.57l6.18-17.58zM321.38 100.1a.47.47 0 0 1-.6-.27l-13.66-37.16a.47.47 0 0 0-.6-.27l-9.72 3.64a.47.47 0 0 0-.28.6l17.16 46.35a.47.47 0 0 0 .6.28l26.1-9.63a.47.47 0 0 0 .27-.6l-3.16-8.45a.47.47 0 0 0-.6-.28l-15.51 5.79zm-66.74 22.48c6.09-3.4 12.13-6.49 13.86-13.91 2.79-12.02-8.51-22.67-20.5-18.39q-4.72 1.68-19.48 11.36-.41.27-.16.69l24.94 42.15a.66.66 0 0 0 .91.23l8.49-5.04a.81.8 59.3 0 0 .28-1.11l-8.72-14.58a1.01 1-30.1 0 1 .38-1.4zm430.84 23.87c16.49 4.4 27.77-15.88 13.28-26.97q-6.64-5.09-13.8-10.5-1.11-.83-1.94.27l-29.32 38.68q-.28.37.09.66l8.13 6.17a.63.63 0 0 0 .88-.12l11.26-14.8a.48.48 0 0 1 .86.31q-.27 9.64-.11 19.61c.02 1.8-.29 4.05.97 5.45q1.88 2.08 10.15 7.5.47.31.44-.25l-1.33-25.65q-.03-.48.44-.36zm-508.57 23.26a.33.33 0 0 1 .41-.49l27.31 14.51a.33.33 0 0 0 .37-.05l4.59-4.16a.33.33 0 0 0 .09-.38l-12.47-28.52a.33.33 0 0 1 .52-.38l21.82 20.06a.33.33 0 0 0 .45 0l7.68-7.32a.33.33 0 0 0-.01-.49l-37.1-33.34a.33.33 0 0 0-.44.01l-8.41 7.83a.33.33 0 0 0-.09.36l11.3 28.2a.33.33 0 0 1-.45.41l-27.32-13.33a.33.33 0 0 0-.37.05l-8.54 7.75a.33.33 0 0 0-.04.45l30.65 39.59a.33.33 0 0 0 .48.04l7.75-7.24a.33.33 0 0 0 .03-.45l-18.21-23.11zm584.853 7.845a26.23 25.5-39.9 0 0-36.48-2.738 26.23 25.5-39.9 0 0-3.766 36.388 26.23 25.5-39.9 0 0 36.48 2.738 26.23 25.5-39.9 0 0 3.766-36.388zM124.82 215.95a.57.57 0 0 1-.14-.79l9.42-13.17a.57.57 0 0 0-.12-.79l-7.05-5.24a.57.57 0 0 0-.81.12l-16.04 22.56a.57.57 0 0 0 .13.79l40.16 28.59a.57.57 0 0 0 .79-.14l16.04-22.56a.57.57 0 0 0-.14-.8l-7.12-5.03a.57.57 0 0 0-.79.13l-9.54 13.3a.57.57 0 0 1-.79.13l-7.57-5.44a.57.57 0 0 1-.13-.79l9.1-12.6a.57.57 0 0 0-.13-.8l-7.2-5.12a.57.57 0 0 0-.8.14l-8.93 12.74a.57.57 0 0 1-.8.14l-7.54-5.37zm693.19 54.06c.35-13.56-8.38-25.9-21.6-29.48q-12.72-3.44-22.47 4.85c-15.31 13.01-10.34 35.9 5.29 45.57a.89.89 0 0 0 1.21-.26l4.99-7.47a.9.89 32.7 0 0-.28-1.27c-8.97-5.49-12.68-18.69-4.42-26.49 10.82-10.21 26.19.33 26.34 13.45q.01.81.15 1.61.09.51.6.49l9.59-.39a.63.62-1 0 0 .6-.61zm-724.31-.69a.79.79 0 0 1-.37-1.06l4.57-9.43a.79.79 0 0 0-.37-1.06L90 254.2a.79.79 0 0 0-1.05.37l-14.47 30.5a.79.79 0 0 0 .37 1.04l7.56 3.71a.79.79 0 0 0 1.07-.38l4.32-9.57a.79.79 0 0 1 1.06-.38l35.27 16.74a.79.79 0 0 0 1.05-.37l4.17-8.75a.79.79 0 0 0-.38-1.05L93.7 269.32zm726.98 55.91a.74.74 0 0 1 .49-.92l17.88-5.55a.74.74 0 0 0 .49-.93l-2.87-9.29a.74.74 0 0 0-.92-.49l-46.81 14.11a.74.74 0 0 0-.5.92l2.85 9.46a.74.74 0 0 0 .92.49l18.06-5.51a.74.74 0 0 1 .93.49l4.38 14.46a.74.74 0 0 1-.5.92l-18.07 5.47a.74.74 0 0 0-.49.92l2.8 9.44a.74.74 0 0 0 .92.49l46.83-14.17a.74.74 0 0 0 .5-.91l-2.75-9.44a.74.74 0 0 0-.93-.5l-18.01 5.45a.74.74 0 0 1-.92-.49l-4.28-14.42zM83.96 391.34c2.69 3.39 1.65 11.58-3.18 12.8q-3.76.94-11.56-.14-12.11-1.68-24.14-3.49a.81.81 0 0 0-.92.71l-1.13 10.28a.46.46 0 0 0 .41.51q16.79 1.97 33.56 4.24c13.7 1.85 20.33-10.92 19.6-22.6-.72-11.37-7.53-15.72-18.1-16.94q-14.41-1.67-29.72-3.83a.99.98-83 0 0-1.12.88l-.96 9.99q-.05.52.47.57 10.21 1.05 25.08 3.03c3.96.53 9.25.89 11.71 3.99zm742.85 11.38a.62.62 0 0 1 .69.56l1.6 15.65a.62.62 0 0 0 .71.55l8.66-1.18a.62.62 0 0 0 .53-.68l-1.74-15.27a.62.62 0 0 1 .55-.69l9.2-1.04a.62.62 0 0 1 .69.56l1.5 16.42a.62.62 0 0 0 .69.56l8.62-.96a.62.62 0 0 0 .55-.68L856.28 389a.62.62 0 0 0-.68-.55l-48.93 5.15a.62.62 0 0 0-.55.68l2.88 27.34a.62.62 0 0 0 .69.55l8.54-.95a.62.62 0 0 0 .55-.68l-1.64-15.92a.62.62 0 0 1 .54-.68l9.13-1.22zm-781.79 90.7l49.23-3.61a.59.59 0 0 0 .54-.63l-1.03-14.03a25.31 24.68 85.8 0 0-26.46-23.43l-1.18.09a25.31 24.68 85.8 0 0-22.76 27.05l1.03 14.02a.59.59 0 0 0 .63.54zm808.84-.11c7.34-8.9 8.58-25.33-3.69-30.98-8.58-3.96-14.68 1.22-18.91 8.29-1.65 2.75-4.16 8.27-7.23 9.47-4.47 1.74-6.92-3.88-6.18-7.38q1.42-6.68 6.37-11.51.48-.46-.07-.84l-8.28-5.76a.62.62 0 0 0-.82.11q-6.93 8.09-7.72 18.79c-.71 9.59 4.24 18.99 14.9 19.23 10.3.23 14.61-10.92 18.79-18.2 2.6-4.51 7.95-2.37 8.05 2.47q.12 6.29-3.84 10.75a.74.74 0 0 0 .17 1.13l7.63 4.58q.47.28.83-.15zm-798.4 54.2a.46.46 0 0 0 .57.31l28.76-8.32a.46.46 0 0 1 .48.74L61.4 567.36a.46.46 0 0 0-.1.43l2.87 10.23a.46.46 0 0 0 .57.32l47.62-13.69a.46.46 0 0 0 .31-.57l-2.89-9.99a.46.46 0 0 0-.57-.31l-28.68 8.27a.46.46 0 0 1-.47-.74l23.78-27.04a.46.46 0 0 0 .09-.43l-2.88-10.29a.46.46 0 0 0-.58-.32l-47.64 13.71a.46.46 0 0 0-.32.57l2.95 10zm786.08-16.25a.83.83 0 0 0-1.02.61l-2.41 10.02a.83.83 0 0 1-1.02.61l-37.59-10.16a.83.83 0 0 0-1.01.58l-2.62 9.35a.83.83 0 0 0 .58 1.03l37.7 10.11a.83.83 0 0 1 .58 1.03l-2.86 9.9a.83.83 0 0 0 .58 1.04l8.05 2.11a.83.83 0 0 0 1.01-.59l8.67-32.53a.83.83 0 0 0-.6-1.02l-8.04-2.09zm-37.82 76.46a.67.67 0 0 1 .9-.32l8.17 3.91a.67.67 0 0 1 .32.89l-6.83 14.45a.67.67 0 0 0 .32.89l7.68 3.72a.67.67 0 0 0 .9-.31l11.67-24.8a.67.67 0 0 0-.32-.9l-44.4-20.87a.67.67 0 0 0-.9.33l-11.63 24.68a.67.67 0 0 0 .3.88l7.65 3.84a.67.67 0 0 0 .91-.32l6.83-14.66a.67.67 0 0 1 .89-.32l8.33 3.82a.67.67 0 0 1 .33.89l-6.53 14a.67.67 0 0 0 .33.89l7.68 3.56a.67.67 0 0 0 .89-.32l6.51-13.93zm-676.976-10.393a.87.87 0 0 0-1.163-.401l-43.735 21.331a.87.87 0 0 0-.401 1.163l4.191 8.592a.87.87 0 0 0 1.163.401l43.735-21.331a.87.87 0 0 0 .4-1.163l-4.191-8.592zm11.786 61.443a.59.59 0 0 1 .13-.82l15.64-11.18a.59.59 0 0 0 .14-.83l-5.98-8.15a.59.59 0 0 0-.81-.13l-40.08 28.66a.59.59 0 0 0-.13.83l6.1 8.22a.59.59 0 0 0 .82.12l15.28-11.17a.59.59 0 0 1 .83.14l8.98 12.59a.59.59 0 0 1-.14.82l-15.49 11.09a.59.59 0 0 0-.14.83l6 8.17a.59.59 0 0 0 .81.13l40.04-28.65a.59.59 0 0 0 .13-.83l-5.95-8.2a.59.59 0 0 0-.82-.14l-15.52 11.16a.59.59 0 0 1-.82-.14l-9.02-12.52zm622.56.76a.52.52 0 0 1-.29.94l-23.74.42a.8.78-71 0 0-.63.32l-7.86 10.84a.48.48 0 0 0 .42.76l25.35-1.96a.82.82 0 0 1 .85 1.05l-.66 2.23q-.14.5-.14 1.02.13 9.34 7.67 13.6 7.59 4.29 14.09.61 3.34-1.88 8.77-9.31 3.96-5.41 7.88-10.94.3-.42-.12-.73l-39.72-28.61a.89.88-54 0 0-1.23.2l-5.42 7.44a1.19 1.19 0 0 0 .27 1.68l14.51 10.44z" class="F"/><path d="M500.528 91.072a26.27 25.49 100.6 0 1-20.223-30.511 26.27 25.49 100.6 0 1 29.887-21.133 26.27 25.49 100.6 0 1 20.223 30.511 26.27 25.49 100.6 0 1-29.887 21.133zm2.367-10.66a15.42 13.4 99.2 0 0 15.693-13.079 15.42 13.4 99.2 0 0-10.762-17.364 15.42 13.4 99.2 0 0-15.693 13.079 15.42 13.4 99.2 0 0 10.762 17.364zM376.82 53.05l1.19 8.5q.2 1.38 1.57 1.14l14.68-2.61q.54-.09.64.44l1.61 8.05a1.08 1.07-10.5 0 1-.87 1.26l-14.69 2.58a.61.61 0 0 0-.5.69l1.38 9.35a.55.54 79.8 0 0 .64.45l15.99-3.11q.86-.17 1 .69l1.37 8.73a.38.37-10.1 0 1-.31.43l-27.34 4.91q-.49.09-.58-.41-3.87-21.44-7.86-42.87c-.22-1.23-.18-3.44-1.09-5.01a.83.83 0 0 1 .57-1.23L391.04 40a.98.97-9.8 0 1 1.14.8l1.36 8.41q.1.6-.51.7l-15.82 2.61q-.45.08-.39.53z" class="B"/><ellipse cx="0" cy="0" transform="matrix(-.159881 .987136 -.987136 -.159881 505.36 65.19)" rx="15.42" ry="13.4" class="F"/><path d="M574.82 87.56l-6.18 17.58a.94.94 0 0 1-1.22.57l-8.86-3.35a.94.94 0 0 1-.55-1.2l16.2-45.67a.94.94 0 0 1 1.2-.57l25.54 9.09a.94.94 0 0 1 .57 1.19l-2.58 7.57a.94.94 0 0 1-1.21.58l-14.94-5.32a.94.94 0 0 0-1.19.56l-2.98 7.99a.94.94 0 0 0 .57 1.21l13.76 4.74a.94.94 0 0 1 .59 1.19l-2.64 7.76a.94.94 0 0 1-1.22.57l-13.64-5.06a.94.94 0 0 0-1.22.57zM321.38 100.1l15.51-5.79a.47.47 0 0 1 .6.28l3.16 8.45a.47.47 0 0 1-.27.6l-26.1 9.63a.47.47 0 0 1-.6-.28l-17.16-46.35a.47.47 0 0 1 .28-.6l9.72-3.64a.47.47 0 0 1 .6.27l13.66 37.16a.47.47 0 0 0 .6.27zm-66.74 22.48a1.01 1-30.1 0 0-.38 1.4l8.72 14.58a.81.8 59.3 0 1-.28 1.11l-8.49 5.04a.66.66 0 0 1-.91-.23l-24.94-42.15q-.25-.42.16-.69 14.76-9.68 19.48-11.36c11.99-4.28 23.29 6.37 20.5 18.39-1.73 7.42-7.77 10.51-13.86 13.91zm-11.93-18.22l6.1 10.38a.87.87 0 0 0 1.19.31l2.37-1.39a8.76 6.42-30.4 0 0 4.31-9.97l-.48-.81a8.76 6.42-30.4 0 0-10.8-1.1l-2.38 1.39a.87.87 0 0 0-.31 1.19z" class="B"/><path d="M242.71 104.36a.87.87 0 0 1 .31-1.19l2.38-1.39a8.76 6.42-30.4 0 1 10.8 1.1l.48.81a8.76 6.42-30.4 0 1-4.31 9.97l-2.37 1.39a.87.87 0 0 1-1.19-.31l-6.1-10.38z" class="F"/><path d="M685.04 146.81l1.33 25.65q.03.56-.44.25-8.27-5.42-10.15-7.5c-1.26-1.4-.95-3.65-.97-5.45q-.16-9.97.11-19.61a.48.48 0 0 0-.86-.31l-11.26 14.8a.63.63 0 0 1-.88.12l-8.13-6.17q-.37-.29-.09-.66l29.32-38.68q.83-1.1 1.94-.27 7.16 5.41 13.8 10.5c14.49 11.09 3.21 31.37-13.28 26.97q-.47-.12-.44.36zm2.01-24.16l-7.36 9.63a.77.77 0 0 0 .14 1.08l2.61 1.99a7.15 6.09 37.4 0 0 9.38-.49l.9-1.18a7.15 6.09 37.4 0 0-1.98-9.18l-2.61-1.99a.77.77 0 0 0-1.08.14z" class="B"/><path d="M687.05 122.65a.77.77 0 0 1 1.08-.14l2.61 1.99a7.15 6.09 37.4 0 1 1.98 9.18l-.9 1.18a7.15 6.09 37.4 0 1-9.38.49l-2.61-1.99a.77.77 0 0 1-.14-1.08l7.36-9.63z" class="F"/><path d="M176.91 169.71l18.21 23.11a.33.33 0 0 1-.03.45l-7.75 7.24a.33.33 0 0 1-.48-.04l-30.65-39.59a.33.33 0 0 1 .04-.45l8.54-7.75a.33.33 0 0 1 .37-.05l27.32 13.33a.33.33 0 0 0 .45-.41l-11.3-28.2a.33.33 0 0 1 .09-.36l8.41-7.83a.33.33 0 0 1 .44-.01l37.1 33.34a.33.33 0 0 1 .01.49L220 170.3a.33.33 0 0 1-.45 0l-21.82-20.06a.33.33 0 0 0-.52.38l12.47 28.52a.33.33 0 0 1-.09.38l-4.59 4.16a.33.33 0 0 1-.37.05l-27.31-14.51a.33.33 0 0 0-.41.49zm584.853 7.845a26.23 25.5-39.9 0 1-3.766 36.388 26.23 25.5-39.9 0 1-36.48-2.738 26.23 25.5-39.9 0 1 3.766-36.388 26.23 25.5-39.9 0 1 36.48 2.738zm-8.098 7.027a15.44 13.34-39.2 0 0-20.396-.579 15.44 13.34-39.2 0 0-3.534 20.096 15.44 13.34-39.2 0 0 20.396.579 15.44 13.34-39.2 0 0 3.534-20.096z" class="B"/><ellipse cx="0" cy="0" transform="matrix(.774944 -.632029 .632029 .774944 741.7 194.34)" rx="15.44" ry="13.34" class="F"/><path fill="#0b0704" d="M583.97 289.89q-11.51 6.2-24.26 9.17c-4.25.99-9.35 1.49-14.04 2.21q-2.18.34-3.96 1.67c-3.88 2.89-7.71 5.66-11.15 8.96q-10.57 10.12-16.87 18.29-6.35 8.23-9.28 11.74-.49.59-.62 1.27a.3.3 0 0 0 .53.24c.57-.67 1.52-1.22 1.99-1.82 21.73-27.79 56.07-50.48 91.61-30.81 28.79 15.94 38.01 54.11 34.35 84.25-1.24 10.2-1.88 16.32-4.67 24.62q-5.84 17.34-11.31 30.31c-1.16 2.75-3.05 5.36-4.46 8.15q-.11.23-.32.09-.11-.07-.21-.23 11.15-23.66 15.8-40.88c5.91-21.91 6.64-45.22-.26-67-7.49-23.64-26.09-43.36-52-45.16q-8.93-.62-12.36-.04c-17.41 2.92-33.09 13.29-45.25 26.06q-17.67 18.57-32.21 39.63c-4.89 7.07-9.58 12.94-14.63 19.27q-1.99 2.48-4.43 3.86a.84.84 0 0 1-1.17-.36c-1.76-3.52-3.39-7.61-5.45-10.58-7.87-11.33-21.12-18.53-34.69-21.12a.57.57 0 0 1-.37-.87q10.77-16.36 19.58-33.6 5.04-9.84 7.86-18.36 3.74-11.27 5.84-23.01c.65-3.64.24-6.85.06-10.52q-.23-4.87-.97-7.83c-3.22-12.98-14.19-22.14-26.65-25.59-21.92-6.07-43.77 7.5-63.63 18.08q-11.51 6.12-21.6 8.04-13.77 2.61-28.1-1.23-3.18-.85-10.4-3.76c-6.4-2.58-15.09-6.11-20.53-.73-11.8 11.68-9.89 25.99-5.05 40.27q4.12 12.14 15.35 16.16 9.02 3.24 11.71 3.01c6.26-.52 12.79-.29 18.65-1.02q8.51-1.05 12.35-1.81 19.68-3.92 39.38-7.82c3.31-.66 7.06-.68 10.62-1.35q2.98-.56 5.53-.27c8.85 1.03 15.29 1.18 20.91 8.61q1.89 2.49 2.12 5.78.51 7.34-2.88 13.06c-12.1 20.43-31.43 35.76-47.61 53.7-1.77 1.96-3.84 3.4-5.62 5.41a.84.84 0 0 0 .37 1.35c10.24 3.36 20.66 7.93 28.99 14.31 15.73 12.03 25.03 28.93 27.49 48.66q1.04 8.36.58 13.89-1.25 15.39-10.42 30.22-2 3.23-4.35 5.19-2.64 2.2-5.71 3.79c-2.9 1.49-5.92 1.47-9.17 2-7.94 1.29-16.93-1.21-23.14-5.78-7.96-5.85-11.91-13.75-15.84-24.07q-14.02-36.92-33.2-71.46c-1.43-2.57-3.61-5.98-5.48-7.47q-11.5-9.13-25.91-10.94c-4.77-.6-12.1 1.34-15.65 2.78q-5.25 2.12-9.36 8.37c-7.77 11.8-.46 25.98 8.5 34.37q6.14 5.75 6.54 6.23 6.99 8.18 11.63 20.17 3.29 8.48 5.16 13.92 1.05 3.06 2.86 11.55c6.5 30.51 28.31 49.85 58.09 57.53 5.09 1.31 10.94 1.17 16.48 2.01 3.63.55 6.86.34 10.43.32q4.45-.02 7.81-.45 21.46-2.76 38.84-11.08 15.83-7.57 27.97-22.36c3.04-3.7 5.4-8.29 8.23-12.87 6.19-9.99 9.34-21.66 11.95-33.91 1.39-6.51 1.55-13.59 2.32-20.48q.65-5.8.31-10.67c-.45-6.62-.74-13.26-2.38-19.72-.45-1.75-1.4-6.01.15-7.39q10.31-9.18 20.49-18.5c15.05-13.78 34.58-28.14 55.96-24.36 27.07 4.78 44.86 36.42 36.85 62.43-.57 1.86-1.91 3.47-2.72 5.33-2.1 4.82-7.55 10.86-10.46 13.23q-13.84 11.26-30.9 16.56-15.23 4.73-22.77 5.78c-9.5 1.31-17.51 2.82-24.22 9.6-8.21 8.28-11.37 21.71-5.83 32.15 7.49 14.09 25.23 12.45 38.07 8.04q14.89-5.12 29.06-11.97 35.35-17.09 51.98-52.54.55 1.16 3.13-1.57.5-.52.79-1.24c.47-1.15.89-2.23 1.59-3.31q4.62-7.22 7.21-13.92 6.75-17.41 12.37-38.55 3.44-12.93 3.51-29.71.09-18.34-4.5-33.21c-5.01-16.23-15.16-31.74-30.18-40.08-6.17-3.43-13.8-5.51-20.94-7.01a.18.18 0 0 1-.01-.35l.92-.25c40.03 5.01 57.58 46.94 55.85 82.59-.47 9.7-.77 17.58-3.49 28.04q-4.95 19-12.11 37.28c-5.69 14.53-14.6 27.65-23.74 40.2q-15.27 20.98-37.89 32.8c-10.03 5.25-22.42 10.5-34.07 14.3-13.98 4.55-31.85 4.86-39.13-10.09-4.22-8.65-2.9-19.29 2.26-27.33 2.58-4 6.9-6.68 9.44-11.15q5.26-9.24 15.37-13.32c3.14-1.27 7.82-2.2 12.16-2.99 18.18-3.3 36.77-9.57 51.52-21 5.01-3.88 6.87-6.54 7.7-12.63q.94-6.9.46-10.99c-2.34-20.13-14.74-38.31-35.12-43.38-26.17-6.52-50.13 16.9-67.54 32.68q-1.16 1.06-1.94 2.38-.27.48.08.9 1.38 1.68 1.45 3.62c.17 4.55 1.36 9.09 1.57 13.01.29 5.31.66 10.26.16 15.64-.87 9.42-1.12 19.08-3.42 28.01-3.92 15.23-9.96 30.11-19.61 41.51q-4.2 4.96-11.76 12.59-7.67 7.76-12.79 11.48c-16.77 12.23-38.49 18.14-58.84 19.46q-4.58.3-11.5-.41c-5.15-.53-10.49-.65-15.29-1.74-30.5-6.91-54.25-27.51-60.62-58.79q-1.67-8.21-2.71-11.41c-3.65-11.22-8.7-25.59-16.9-34.08-3.17-3.28-8.36-7.32-11.45-11.53-6.62-9.04-10.47-21.51-3.02-30.94q2.18-2.75 5.61-5.59 1.43-1.19 5.6-5.09c15.12-14.15 40.81-8.15 52.81 6.82q2.31 2.88 10.17 17.2 14.69 26.78 24.42 50.94c6.23 15.47 10.12 26.43 24.98 33.19 6.92 3.14 14.46 2.14 21.57.62q2.19-.47 3.5-1.94c4.49-5.02 8.02-18.64 8.64-25.38q1.47-16.07-3.21-29.58c-9.24-26.68-28.66-40.69-54.91-48.76a.78.78 0 0 1-.28-1.34l6.98-6.14a1.2 1.2 0 0 0 .4-.8l.11-1.26q.04-.46.38-.77c7.1-6.49 13.89-13.66 20.49-20.32q12.77-12.87 23.61-27.44c3.73-5.02 7.68-14.68 3.8-20.51-5.44-8.16-17.53-9.19-26.31-8.19-13.83 1.57-27.48 4.93-41.13 7.53q-20.3 3.86-35.96 4.23c-4.63.11-11.38-1.01-14.94-2.35-14.34-5.43-18.15-18.25-20.11-32.14-1.39-9.85 1.82-18.59 7.97-26.04q1.05-1.26 2.74-4.14c5.59-9.49 13.84-8.56 22.65-5.21 16.64 6.34 33.71 8.68 50.51 1.96q2.24-.9 17.23-8.8c15.9-8.38 33.68-19.65 52.61-17.01 17.33 2.42 31.74 13.77 34.75 31.52 1.22 7.22 1.13 14.09-.6 21.56q-5.29 22.82-16.78 43.36-5.57 9.96-10.9 20.08c-.67 1.27-1.83 2.5-2.59 3.86a.63.63 0 0 0 .42.93q16.52 3.32 28.92 14.25c4.62 4.08 7.12 8.47 9.48 14.07q.63 1.5 2.26 2.79.42.34.56-.18c1.28-4.48 6.07-8.48 8.82-12.34q11.66-16.38 23.45-32.67 14.25-19.68 33.4-34.08 2.26-1.71-.43-.82-.1.04-1.15.14-.56.06-1.15-.01c-8.29-.97-16.92-1.49-24.66-3.52q-12.6-3.29-24.57-8.51-8.63-3.75-14.55-11.54-5.14-6.76-3.86-14.82c.49-3.09 2.43-5.03 4.89-6.69a.69.68-32.3 0 0 .21-.9l-.75-1.3a1 .98 38.8 0 1-.09-.75q3.43-12.57 16.58-9.97.69.13.57-.55-1.06-6.2 4.46-9.26a.86.86 0 0 0 .43-.84c-2.07-19.04 16.76-10.07 26.47-11.47 11.92-1.73 17.03-12.07 22.11-21.78 2.3-4.41 7.83-9.15 13.13-8.37q16.34 2.41 14.25 19.36-.34 2.7-2.67 7.39-1.41 2.82-2.5 6.4c-2.42 7.91-7.07 14.95-13.65 20.07q-1.69 1.31-3.25 2.81-.2.19.04.31l.22.12q.14.07.25-.04c2.22-2.09 4.98-2.96 7.06-4.8 9.29-8.23 16.9-19.12 23.35-29.67 5.25-8.57 13.7-13.98 23.95-13.12q7.2.6 12.64 4.5c12.08 8.67 13.96 22.66 8.14 35.75-2.3 5.18-3.59 11.3-5.97 15.73-7.82 14.59-22.91 25.95-36.42 33.9zm-15.13-72.49c5.07-10.13 3.59-25.23-10.97-25.21-5.96.01-10.4 5.29-12.68 10.42-4.92 11.03-13.98 21.38-27.03 20-4.92-.52-9.51-.76-14.41-.73-5.19.03-6.08 5.57-5.89 9.71a1.28 1.28 0 0 0 1.42 1.22c9.29-1.02 16.77 3.74 26.07-.92 8.95-4.48 12.53-14.76 17.75-21.83 3.49-4.72 8.95-6.68 14.7-5.31q9.01 2.16 10.28 12.52a.4.4 0 0 0 .76.13zm59.28 10.84c1.05-9.3-3.7-18.91-11.77-23.29q-14.66-7.95-26.32.72-3.53 2.63-7.93 9.08c-6.86 10.06-13.57 21.28-23.39 28.78q-23.53 17.97-53.16 11.34c-6.44-1.45-10.5-4.03-13.4-9.72q-.25-.49-.79-.61-12.45-2.7-15.25 9.35a1.18 1.18 0 0 0 1.39 1.42c8.28-1.74 15.36 1.97 22.77 5.1q7.82 3.3 16.19 4.8c23.13 4.12 40.65-9.4 53.09-27.17 4.27-6.1 8.71-14.21 13.77-18.35 12.38-10.14 29.55-6.02 37.7 7.12 1.94 3.13 2.79 7.14 4.05 10.87a.68.68 0 0 0 1.3-.04q1.19-4.41 1.75-9.4zm-60.86-10.46c-1.1-2.35-1.59-5.03-2.85-6.93-4.87-7.37-16.57-6.91-20.95.89-5.49 9.79-11.58 20.54-23.49 23.11q-2.92.64-7.96-.01-6.78-.86-13.64-1.07-.49-.01-.9.26-3.98 2.64-4.43 6.81c-.69 6.45 5.01 10.59 10.74 12.13 14.21 3.82 28.15 3.74 41.24-3.1 4.93-2.58 10.9-8.29 13.98-11.84q6.77-7.8 8.39-19.4.06-.44-.13-.85zm54.86 15.1c-2.29-9.02-9.77-15.11-18.47-17.04-11.59-2.56-20.83 3.51-26.67 13.37q-4.76 8.02-12.85 17.43c-14.07 16.37-31.95 24.83-53.87 18.36q-7.91-2.34-15.47-5.64-5.97-2.6-8.29-3.07-4.97-.99-9.01.42c-5.8 2.01-5.99 7.09-5.57 12.26.64 7.84 9.37 15.3 16.04 18.55q14.97 7.28 30.84 10.27c2.9.55 6.55.67 9.83 1.25q5.1.9 7.34 1.02c29.1 1.5 57.51-13.18 76.78-34.85 6.73-7.56 8.76-15.73 11.69-25.08a1.18 1.15-50.8 0 0-.08-.88q-1.21-2.32-2.24-6.37zM454.8 307.79c4.57-11.1 8.67-23.71 9.01-35.53q.19-6.91-.37-10.48-3-19.08-20.21-27.4c-16.26-7.87-32.22-4.56-47.95 3.49q-14.41 7.37-28.74 14.85c-14.26 7.44-27.58 9.06-43.07 5.82-4.73-.99-9.75-2.82-14.57-4.45-9.68-3.26-15.76-4.46-21.57 4.73a.57.57 0 0 0 .74.82q4.51-2.21 9.69-.67c5.87 1.75 13.83 5.31 19.95 6.83q24.05 5.97 46.34-5.92 12.75-6.79 25.71-13.15c11.69-5.73 25.69-9.28 38.25-6.62 14.46 3.06 27.04 14 30.5 28.82.82 3.51.6 7.62.62 11.39.05 7.52-2.4 15.46-3.87 22.83-.28 1.38-1.52 3.3-1.2 4.58q.29 1.15.74.06zm-28.51 52.98c17.7 5.03 32.77 12.85 39.08 31.28a.64.63 56 0 0 1.08.21l7.14-8.23q.5-.58.02-1.16c-1.16-1.41-1.97-2.35-2.63-4.11-5.81-15.29-22.96-24.86-38.37-27.5a.94.93 20.8 0 0-.94.42l-5.51 8.76a.23.22 24.6 0 0 .13.33zm-154.94 36.12c4.86-1.44 9.04-2.88 13.98-2.34q15.46 1.7 27.28 12.11 2.62 2.3 3.11 3.17 20.35 35.94 37.88 81.8 7.46 19.52 28.38 23.07c3.17.53 6.43-.34 9.67-.74 6.43-.8 10.91-4.02 15.08-8.71a.51.51 0 0 0-.47-.84q-4.67.81-9.67 1.44c-15.51 1.94-29.23-10.46-34.62-24.09q-14.94-37.74-32.94-69.63c-1.6-2.83-4.87-9.43-7.21-11.67-6.95-6.63-15.42-11.4-25.12-12.21q-7.09-.6-9.7-.19-9.53 1.49-16.04 8.19a.39.39 0 0 0 .39.64zm191.08 114.78q16.45-20.32 21.45-45.85c1.07-5.48 1.32-12.34 2.26-18.56q1.13-7.42.17-22.36-.1-1.58-.9-6.23c-.51-3.05.26-6.92-2.01-9.36q-.36-.39-.76-.05l-6.64 5.62a1.2 1.17 69.9 0 0-.42.93c.06 3.89 1.61 7.99 1.95 11.11q.69 6.26 1.12 12.55.41 5.99-.19 12.55c-.67 7.35-1.17 14.64-2.71 21.8q-1.09 5.06-2.31 10.08-3.93 16.06-13.83 29.82a.07.06-82.8 0 0 .07.1q1.61-.75 2.75-2.15zm121.56-71.46a.36.35 19.8 0 0-.26-.55q-.58-.05-1.2.43-13.66 10.6-30.14 15.92-13.14 4.25-26.62 7-7.8 1.59-11.19 3.36-7.41 3.88-11.79 11.14a.66.66 0 0 0 .94.89c5.22-3.57 11.76-4.18 19.51-5.41q9.12-1.44 22.98-6.05c15.13-5.04 28.85-13.5 37.77-26.73z"/><path d="M557.87 192.19c14.56-.02 16.04 15.08 10.97 25.21a.4.4 0 0 1-.76-.13q-1.27-10.36-10.28-12.52c-5.75-1.37-11.21.59-14.7 5.31-5.22 7.07-8.8 17.35-17.75 21.83-9.3 4.66-16.78-.1-26.07.92a1.28 1.28 0 0 1-1.42-1.22c-.19-4.14.7-9.68 5.89-9.71 4.9-.03 9.49.21 14.41.73 13.05 1.38 22.11-8.97 27.03-20 2.28-5.13 6.72-10.41 12.68-10.42z" class="E"/><path d="M124.82 215.95l7.54 5.37a.57.57 0 0 0 .8-.14l8.93-12.74a.57.57 0 0 1 .8-.14l7.2 5.12a.57.57 0 0 1 .13.8l-9.1 12.6a.57.57 0 0 0 .13.79l7.57 5.44a.57.57 0 0 0 .79-.13l9.54-13.3a.57.57 0 0 1 .79-.13l7.12 5.03a.57.57 0 0 1 .14.8l-16.04 22.56a.57.57 0 0 1-.79.14l-40.16-28.59a.57.57 0 0 1-.13-.79l16.04-22.56a.57.57 0 0 1 .81-.12l7.05 5.24a.57.57 0 0 1 .12.79l-9.42 13.17a.57.57 0 0 0 .14.79z" class="B"/><path d="M616.35 204.95c8.07 4.38 12.82 13.99 11.77 23.29q-.56 4.99-1.75 9.4a.68.68 0 0 1-1.3.04c-1.26-3.73-2.11-7.74-4.05-10.87-8.15-13.14-25.32-17.26-37.7-7.12-5.06 4.14-9.5 12.25-13.77 18.35-12.44 17.77-29.96 31.29-53.09 27.17q-8.37-1.5-16.19-4.8c-7.41-3.13-14.49-6.84-22.77-5.1a1.18 1.18 0 0 1-1.39-1.42q2.8-12.05 15.25-9.35.54.12.79.61c2.9 5.69 6.96 8.27 13.4 9.72q29.63 6.63 53.16-11.34c9.82-7.5 16.53-18.72 23.39-28.78q4.4-6.45 7.93-9.08 11.66-8.67 26.32-.72z" class="E"/><path d="M567.39 218.63q-1.62 11.6-8.39 19.4c-3.08 3.55-9.05 9.26-13.98 11.84-13.09 6.84-27.03 6.92-41.24 3.1-5.73-1.54-11.43-5.68-10.74-12.13q.45-4.17 4.43-6.81.41-.27.9-.26 6.86.21 13.64 1.07 5.04.65 7.96.01c11.91-2.57 18-13.32 23.49-23.11 4.38-7.8 16.08-8.26 20.95-.89 1.26 1.9 1.75 4.58 2.85 6.93q.19.41.13.85zm54.73 14.25q1.03 4.05 2.24 6.37a1.18 1.15-50.8 0 1 .08.88c-2.93 9.35-4.96 17.52-11.69 25.08-19.27 21.67-47.68 36.35-76.78 34.85q-2.24-.12-7.34-1.02c-3.28-.58-6.93-.7-9.83-1.25q-15.87-2.99-30.84-10.27c-6.67-3.25-15.4-10.71-16.04-18.55-.42-5.17-.23-10.25 5.57-12.26q4.04-1.41 9.01-.42 2.32.47 8.29 3.07 7.56 3.3 15.47 5.64c21.92 6.47 39.8-1.99 53.87-18.36q8.09-9.41 12.85-17.43c5.84-9.86 15.08-15.93 26.67-13.37 8.7 1.93 16.18 8.02 18.47 17.04z" class="B"/><path d="M454.8 307.79q-.45 1.09-.74-.06c-.32-1.28.92-3.2 1.2-4.58 1.47-7.37 3.92-15.31 3.87-22.83-.02-3.77.2-7.88-.62-11.39-3.46-14.82-16.04-25.76-30.5-28.82-12.56-2.66-26.56.89-38.25 6.62q-12.96 6.36-25.71 13.15-22.29 11.89-46.34 5.92c-6.12-1.52-14.08-5.08-19.95-6.83q-5.18-1.54-9.69.67a.57.57 0 0 1-.74-.82c5.81-9.19 11.89-7.99 21.57-4.73 4.82 1.63 9.84 3.46 14.57 4.45 15.49 3.24 28.81 1.62 43.07-5.82q14.33-7.48 28.74-14.85c15.73-8.05 31.69-11.36 47.95-3.49q17.21 8.32 20.21 27.4.56 3.57.37 10.48c-.34 11.82-4.44 24.43-9.01 35.53z" class="E"/><path d="M796.41 240.53c13.22 3.58 21.95 15.92 21.6 29.48a.63.62-1 0 1-.6.61l-9.59.39q-.51.02-.6-.49-.14-.8-.15-1.61c-.15-13.12-15.52-23.66-26.34-13.45-8.26 7.8-4.55 21 4.42 26.49a.9.89 32.7 0 1 .28 1.27l-4.99 7.47a.89.89 0 0 1-1.21.26c-15.63-9.67-20.6-32.56-5.29-45.57q9.75-8.29 22.47-4.85zM611.3 458q.11.67-.5 1.79-16.63 35.45-51.98 52.54-14.17 6.85-29.06 11.97c-12.84 4.41-30.58 6.05-38.07-8.04-5.54-10.44-2.38-23.87 5.83-32.15 6.71-6.78 14.72-8.29 24.22-9.6q7.54-1.05 22.77-5.78 17.06-5.3 30.9-16.56c2.91-2.37 8.36-8.41 10.46-13.23.81-1.86 2.15-3.47 2.72-5.33 8.01-26.01-9.78-57.65-36.85-62.43-21.38-3.78-40.91 10.58-55.96 24.36q-10.18 9.32-20.49 18.5c-1.55 1.38-.6 5.64-.15 7.39 1.64 6.46 1.93 13.1 2.38 19.72q.34 4.87-.31 10.67c-.77 6.89-.93 13.97-2.32 20.48-2.61 12.25-5.76 23.92-11.95 33.91-2.83 4.58-5.19 9.17-8.23 12.87q-12.14 14.79-27.97 22.36-17.38 8.32-38.84 11.08-3.36.43-7.81.45c-3.57.02-6.8.23-10.43-.32-5.54-.84-11.39-.7-16.48-2.01-29.78-7.68-51.59-27.02-58.09-57.53q-1.81-8.49-2.86-11.55-1.87-5.44-5.16-13.92-4.64-11.99-11.63-20.17-.4-.48-6.54-6.23c-8.96-8.39-16.27-22.57-8.5-34.37q4.11-6.25 9.36-8.37c3.55-1.44 10.88-3.38 15.65-2.78q14.41 1.81 25.91 10.94c1.87 1.49 4.05 4.9 5.48 7.47q19.18 34.54 33.2 71.46c3.93 10.32 7.88 18.22 15.84 24.07 6.21 4.57 15.2 7.07 23.14 5.78 3.25-.53 6.27-.51 9.17-2q3.07-1.59 5.71-3.79 2.35-1.96 4.35-5.19 9.17-14.83 10.42-30.22.46-5.53-.58-13.89c-2.46-19.73-11.76-36.63-27.49-48.66-8.33-6.38-18.75-10.95-28.99-14.31a.84.84 0 0 1-.37-1.35c1.78-2.01 3.85-3.45 5.62-5.41 16.18-17.94 35.51-33.27 47.61-53.7q3.39-5.72 2.88-13.06-.23-3.29-2.12-5.78c-5.62-7.43-12.06-7.58-20.91-8.61q-2.55-.29-5.53.27c-3.56.67-7.31.69-10.62 1.35q-19.7 3.9-39.38 7.82-3.84.76-12.35 1.81c-5.86.73-12.39.5-18.65 1.02q-2.69.23-11.71-3.01-11.23-4.02-15.35-16.16c-4.84-14.28-6.75-28.59 5.05-40.27 5.44-5.38 14.13-1.85 20.53.73q7.22 2.91 10.4 3.76 14.33 3.84 28.1 1.23 10.09-1.92 21.6-8.04c19.86-10.58 41.71-24.15 63.63-18.08 12.46 3.45 23.43 12.61 26.65 25.59q.74 2.96.97 7.83c.18 3.67.59 6.88-.06 10.52q-2.1 11.74-5.84 23.01-2.82 8.52-7.86 18.36-8.81 17.24-19.58 33.6a.57.57 0 0 0 .37.87c13.57 2.59 26.82 9.79 34.69 21.12 2.06 2.97 3.69 7.06 5.45 10.58a.84.84 0 0 0 1.17.36q2.44-1.38 4.43-3.86c5.05-6.33 9.74-12.2 14.63-19.27q14.54-21.06 32.21-39.63c12.16-12.77 27.84-23.14 45.25-26.06q3.43-.58 12.36.04c25.91 1.8 44.51 21.52 52 45.16 6.9 21.78 6.17 45.09.26 67q-4.65 17.22-15.8 40.88zM93.7 269.32l35.27 16.74a.79.79 0 0 1 .38 1.05l-4.17 8.75a.79.79 0 0 1-1.05.37l-35.27-16.74a.79.79 0 0 0-1.06.38l-4.32 9.57a.79.79 0 0 1-1.07.38l-7.56-3.71a.79.79 0 0 1-.37-1.04l14.47-30.5a.79.79 0 0 1 1.05-.37l7.53 3.57a.79.79 0 0 1 .37 1.06l-4.57 9.43a.79.79 0 0 0 .37 1.06z" class="B"/><path d="M583.97 289.89q-.12.62.72.7l-.92.25a.18.18 0 0 0 .01.35c7.14 1.5 14.77 3.58 20.94 7.01 15.02 8.34 25.17 23.85 30.18 40.08q4.59 14.87 4.5 33.21-.07 16.78-3.51 29.71-5.62 21.14-12.37 38.55-2.59 6.7-7.21 13.92c-.7 1.08-1.12 2.16-1.59 3.31q-.29.72-.79 1.24-2.58 2.73-3.13 1.57.61-1.12.5-1.79.1.16.21.23.21.14.32-.09c1.41-2.79 3.3-5.4 4.46-8.15q5.47-12.97 11.31-30.31c2.79-8.3 3.43-14.42 4.67-24.62 3.66-30.14-5.56-68.31-34.35-84.25-35.54-19.67-69.88 3.02-91.61 30.81-.47.6-1.42 1.15-1.99 1.82a.3.3 0 0 1-.53-.24q.13-.68.62-1.27 2.93-3.51 9.28-11.74 6.3-8.17 16.87-18.29c3.44-3.3 7.27-6.07 11.15-8.96q1.78-1.33 3.96-1.67c4.69-.72 9.79-1.22 14.04-2.21q12.75-2.97 24.26-9.17z" class="E"/><path d="M820.68 325.23l4.28 14.42a.74.74 0 0 0 .92.49l18.01-5.45a.74.74 0 0 1 .93.5l2.75 9.44a.74.74 0 0 1-.5.91l-46.83 14.17a.74.74 0 0 1-.92-.49l-2.8-9.44a.74.74 0 0 1 .49-.92l18.07-5.47a.74.74 0 0 0 .5-.92l-4.38-14.46a.74.74 0 0 0-.93-.49l-18.06 5.51a.74.74 0 0 1-.92-.49l-2.85-9.46a.74.74 0 0 1 .5-.92l46.81-14.11a.74.74 0 0 1 .92.49l2.87 9.29a.74.74 0 0 1-.49.93l-17.88 5.55a.74.74 0 0 0-.49.92z" class="B"/><path d="M426.29 360.77a.23.22 24.6 0 1-.13-.33l5.51-8.76a.94.93 20.8 0 1 .94-.42c15.41 2.64 32.56 12.21 38.37 27.5.66 1.76 1.47 2.7 2.63 4.11q.48.58-.02 1.16l-7.14 8.23a.64.63 56 0 1-1.08-.21c-6.31-18.43-21.38-26.25-39.08-31.28z" class="E"/><path d="M80.78 404.14c4.83-1.22 5.87-9.41 3.18-12.8-2.46-3.1-7.75-3.46-11.71-3.99q-14.87-1.98-25.08-3.03-.52-.05-.47-.57l.96-9.99a.99.98-83 0 1 1.12-.88q15.31 2.16 29.72 3.83c10.57 1.22 17.38 5.57 18.1 16.94.73 11.68-5.9 24.45-19.6 22.6q-16.77-2.27-33.56-4.24a.46.46 0 0 1-.41-.51l1.13-10.28a.81.81 0 0 1 .92-.71q12.03 1.81 24.14 3.49 7.8 1.08 11.56.14z" class="B"/><path d="M271.35 396.89a.39.39 0 0 1-.39-.64q6.51-6.7 16.04-8.19 2.61-.41 9.7.19c9.7.81 18.17 5.58 25.12 12.21 2.34 2.24 5.61 8.84 7.21 11.67q18 31.89 32.94 69.63c5.39 13.63 19.11 26.03 34.62 24.09q5-.63 9.67-1.44a.51.51 0 0 1 .47.84c-4.17 4.69-8.65 7.91-15.08 8.71-3.24.4-6.5 1.27-9.67.74q-20.92-3.55-28.38-23.07-17.53-45.86-37.88-81.8-.49-.87-3.11-3.17-11.82-10.41-27.28-12.11c-4.94-.54-9.12.9-13.98 2.34z" class="E"/><path d="M826.81 402.72l-9.13 1.22a.62.62 0 0 0-.54.68l1.64 15.92a.62.62 0 0 1-.55.68l-8.54.95a.62.62 0 0 1-.69-.55l-2.88-27.34a.62.62 0 0 1 .55-.68l48.93-5.15a.62.62 0 0 1 .68.55l2.78 27.52a.62.62 0 0 1-.55.68l-8.62.96a.62.62 0 0 1-.69-.56l-1.5-16.42a.62.62 0 0 0-.69-.56l-9.2 1.04a.62.62 0 0 0-.55.69l1.74 15.27a.62.62 0 0 1-.53.68l-8.66 1.18a.62.62 0 0 1-.71-.55l-1.6-15.65a.62.62 0 0 0-.69-.56z" class="B"/><path d="M462.43 511.67q-1.14 1.4-2.75 2.15a.07.06-82.8 0 1-.07-.1q9.9-13.76 13.83-29.82 1.22-5.02 2.31-10.08c1.54-7.16 2.04-14.45 2.71-21.8q.6-6.56.19-12.55-.43-6.29-1.12-12.55c-.34-3.12-1.89-7.22-1.95-11.11a1.2 1.17 69.9 0 1 .42-.93l6.64-5.62q.4-.34.76.05c2.27 2.44 1.5 6.31 2.01 9.36q.8 4.65.9 6.23.96 14.94-.17 22.36c-.94 6.22-1.19 13.08-2.26 18.56q-5 25.53-21.45 45.85zm121.56-71.46c-8.92 13.23-22.64 21.69-37.77 26.73q-13.86 4.61-22.98 6.05c-7.75 1.23-14.29 1.84-19.51 5.41a.66.66 0 0 1-.94-.89q4.38-7.26 11.79-11.14 3.39-1.77 11.19-3.36 13.48-2.75 26.62-7 16.48-5.32 30.14-15.92.62-.48 1.2-.43a.36.35 19.8 0 1 .26.55z" class="E"/><path d="M45.02 493.42a.59.59 0 0 1-.63-.54l-1.03-14.02a25.31 24.68 85.8 0 1 22.76-27.05l1.18-.09a25.31 24.68 85.8 0 1 26.46 23.43l1.03 14.03a.59.59 0 0 1-.54.63l-49.23 3.61zm9.17-12.02l29.17-2.19a.62.62 0 0 0 .58-.66l-.09-1.17a14.66 14.61-4.3 0 0-15.72-13.47l-1.17.09a14.66 14.61-4.3 0 0-13.53 15.67l.09 1.16a.62.62 0 0 0 .67.57zm795.98-19.07c12.27 5.65 11.03 22.08 3.69 30.98q-.36.43-.83.15l-7.63-4.58a.74.74 0 0 1-.17-1.13q3.96-4.46 3.84-10.75c-.1-4.84-5.45-6.98-8.05-2.47-4.18 7.28-8.49 18.43-18.79 18.2-10.66-.24-15.61-9.64-14.9-19.23q.79-10.7 7.72-18.79a.62.62 0 0 1 .82-.11l8.28 5.76q.55.38.07.84-4.95 4.83-6.37 11.51c-.74 3.5 1.71 9.12 6.18 7.38 3.07-1.2 5.58-6.72 7.23-9.47 4.23-7.07 10.33-12.25 18.91-8.29z" class="B"/><path d="M54.19 481.4a.62.62 0 0 1-.67-.57l-.09-1.16A14.66 14.61-4.3 0 1 66.96 464l1.17-.09a14.66 14.61-4.3 0 1 15.72 13.47l.09 1.17a.62.62 0 0 1-.58.66l-29.17 2.19z" class="F"/><path d="M55.46 547.51l-2.95-10a.46.46 0 0 1 .32-.57l47.64-13.71a.46.46 0 0 1 .58.32l2.88 10.29a.46.46 0 0 1-.09.43l-23.78 27.04a.46.46 0 0 0 .47.74l28.68-8.27a.46.46 0 0 1 .57.31l2.89 9.99a.46.46 0 0 1-.31.57l-47.62 13.69a.46.46 0 0 1-.57-.32l-2.87-10.23a.46.46 0 0 1 .1-.43l23.87-27.12a.46.46 0 0 0-.48-.74l-28.76 8.32a.46.46 0 0 1-.57-.31zm786.08-16.25l8.04 2.09a.83.83 0 0 1 .6 1.02l-8.67 32.53a.83.83 0 0 1-1.01.59l-8.05-2.11a.83.83 0 0 1-.58-1.04l2.86-9.9a.83.83 0 0 0-.58-1.03l-37.7-10.11a.83.83 0 0 1-.58-1.03l2.62-9.35a.83.83 0 0 1 1.01-.58l37.59 10.16a.83.83 0 0 0 1.02-.61l2.41-10.02a.83.83 0 0 1 1.02-.61zM494.01 697.41q-.33-.24-.57-.59-.2-.27-.25-.73-1.68-16.8-6.2-33.07c-8.77-31.58-24.05-61.67-45.55-86.76q-.78-.91-1.55.01-34.19 40.97-47.16 93.5-2.66 10.76-4.03 26.97-.04.49-.37.12-.61-.7-.81-.37.5-22.82 5.26-41.96 12.99-52.19 46.94-93.13a1.39 1.38-44.8 0 1 2.14 0c31.34 38.13 51.54 86.46 52.15 136.01z" class="B"/><path d="M494.01 697.41q1.19 27.79-5.24 54.42c-7.61 31.51-25 61.09-47.11 84.93q-.91.98-1.81 0c-22.92-24.92-41.17-56.57-48.18-89.25q-4.97-23.18-4.15-51.02.2-.33.81.37.33.37.37-.12 1.37-16.21 4.03-26.97 12.97-52.53 47.16-93.5.77-.92 1.55-.01c21.5 25.09 36.78 55.18 45.55 86.76q4.52 16.27 6.2 33.07.05.46.25.73.24.35.57.59z" class="E"/><g class="B"><path d="M803.72 607.72l-6.51 13.93a.67.67 0 0 1-.89.32l-7.68-3.56a.67.67 0 0 1-.33-.89l6.53-14a.67.67 0 0 0-.33-.89l-8.33-3.82a.67.67 0 0 0-.89.32l-6.83 14.66a.67.67 0 0 1-.91.32l-7.65-3.84a.67.67 0 0 1-.3-.88l11.63-24.68a.67.67 0 0 1 .9-.33l44.4 20.87a.67.67 0 0 1 .32.9l-11.67 24.8a.67.67 0 0 1-.9.31l-7.68-3.72a.67.67 0 0 1-.32-.89l6.83-14.45a.67.67 0 0 0-.32-.89l-8.17-3.91a.67.67 0 0 0-.9.32z"/><rect x="-25.2" y="-5.65" transform="matrix(.898794 -.438371 .438371 .898794 106.19 612.67)" width="50.4" height="11.3" rx=".87"/><path d="M374.69 675.64q-1.54-.62-5.31-3.76-37.54-31.33-86.92-44.84a1.17 1.12 36.5 0 0-.86.11c-1.95 1.12-1.12 4.11-1.96 5.77l.73-20.48a.48.48 0 0 1 .57-.45q6.26 1.24 12.47 3.28 45.26 14.91 81.29 46.03 1.33 1.15.98 2.93-1.05 5.34-.99 11.41zm229.16-38.14q-1.11-3.61-.86-8.36a1.96 1.96 0 0 0-2.39-2.01q-2.1.48-5.32 1.45-48.69 14.64-87.01 47.97-.34.29-1.21.37l-1.35-12.16a1.79 1.78 66.3 0 1 .59-1.53q35.68-31.75 81.13-47.28 7.14-2.44 14.34-3.89.78-.15.82.64l1.26 24.8z"/></g><path d="M374.69 675.64q1.18 4.78-.1 13.92-1.47 10.45.31 28.7l-.08-.8a.45.45 0 0 0-.89.02q-.61 9.36 2.18 18.54c-.6 3.28.43 6.25.81 8.84q.64 4.24 1.87 8.35 1.16 3.92 1.53 6.96.42 3.51.92 7.12-7.34-16.58-8.84-23.53-1.96-9.12-3.8-18.27c-.59-2.98-.6-6.11-.88-8.99q-.3-2.96-.52 0-.39 5.26.38 11.51c1.78 14.6 4.44 29.51 9.32 43.25q6.96 19.6 17.18 35.66 3.9 6.13-.83.62-3.49-4.06-7.42-9.92c-.51-.77-1.15-2.95-1.37-3.21q-2.48-2.96-1.08.64 3.83 9.83 9.73 18.38 7.11 11.08 16.87 20.64a.43.42 76.3 0 1-.43.71q-13.15-4.4-25.96-10.44c-3.66-1.72-8.91-4.95-14.08-6.48q-.16-1.16-.52-1.24c-1.84-.81-3.01-2.35-4.5-3.27-62.35-38.55-87.37-109.89-84.85-180.43.84-1.66.01-4.65 1.96-5.77a1.17 1.12 36.5 0 1 .86-.11q49.38 13.51 86.92 44.84 3.77 3.14 5.31 3.76zm229.16-38.14q.64 40.72-11.49 79.2c-18.93 60.1-63.11 101.21-123.48 119.56a.52.52 0 0 1-.51-.87q8.9-8.72 15.89-19.02.21-.3-.15-.36-.13-.02-.34.02c.87-.97 1.81-1.78 2.44-2.89q12.7-22.62 16.79-48.35.14-.91-.4-.16-1.29 1.77-1.87 3.38-3.41 9.45-7.96 17.18 1.19-4.71 4.12-12.07 3.59-9 4.99-21.59 3.36-7.24 4.37-17.03 1.49-14.43 1.96-24.05.04-.72-.04-1.38-.44-3.68-.89-1.13.29-13.83-1.25-27.69-.16-1.48 1.03-3.33.87-.08 1.21-.37 38.32-33.33 87.01-47.97 3.22-.97 5.32-1.45a1.96 1.96 0 0 1 2.39 2.01q-.25 4.75.86 8.36z" class="E"/><path d="M138.53 658.77l9.02 12.52a.59.59 0 0 0 .82.14l15.52-11.16a.59.59 0 0 1 .82.14l5.95 8.2a.59.59 0 0 1-.13.83l-40.04 28.65a.59.59 0 0 1-.81-.13l-6-8.17a.59.59 0 0 1 .14-.83l15.49-11.09a.59.59 0 0 0 .14-.82l-8.98-12.59a.59.59 0 0 0-.83-.14l-15.28 11.17a.59.59 0 0 1-.82-.12l-6.1-8.22a.59.59 0 0 1 .13-.83l40.08-28.66a.59.59 0 0 1 .81.13l5.98 8.15a.59.59 0 0 1-.14.83l-15.64 11.18a.59.59 0 0 0-.13.82zm622.56.76l-14.51-10.44a1.19 1.19 0 0 1-.27-1.68l5.42-7.44a.89.88-54 0 1 1.23-.2l39.72 28.61q.42.31.12.73-3.92 5.53-7.88 10.94-5.43 7.43-8.77 9.31-6.5 3.68-14.09-.61-7.54-4.26-7.67-13.6 0-.52.14-1.02l.66-2.23a.82.82 0 0 0-.85-1.05l-25.35 1.96a.48.48 0 0 1-.42-.76l7.86-10.84a.8.78-71 0 1 .63-.32l23.74-.42a.52.52 0 0 0 .29-.94zm17.72 12.77l-9.92-7.24a.67.67 0 0 0-.94.15l-1.98 2.71a7.23 5.88-53.9 0 0 .49 9.31l1.5 1.1a7.23 5.88-53.9 0 0 9.02-2.38l1.97-2.72a.67.67 0 0 0-.14-.93z" class="B"/><path d="M778.81 672.3a.67.67 0 0 1 .14.93l-1.97 2.72a7.23 5.88-53.9 0 1-9.02 2.38l-1.5-1.1a7.23 5.88-53.9 0 1-.49-9.31l1.98-2.71a.67.67 0 0 1 .94-.15l9.92 7.24z" class="F"/><path d="M501.88 751.53q-5.18 12.13-10.97 22.61-.1.19-.39.18a.25.24-77.6 0 1-.22-.35q9.44-20.86 13.5-39.72 2.15-10.03 3.48-26.31.45-2.55.89 1.13.08.66.04 1.38-.47 9.62-1.96 24.05-1.01 9.79-4.37 17.03zm-120.64 15.76q6.15 13.94 12.51 24.68 3.62 6.1-.78.54-5.63-7.13-10.11-15.02a.18.17 22.3 0 0-.32.13q1.43 4.9 3.82 9.52 9.25 17.86 23.66 31.9.59.56-.2.37-8.55-2.06-16.71-5.98-5.9-8.55-9.73-18.38-1.4-3.6 1.08-.64c.22.26.86 2.44 1.37 3.21q3.93 5.86 7.42 9.92 4.73 5.51.83-.62-10.22-16.06-17.18-35.66c-4.88-13.74-7.54-28.65-9.32-43.25q-.77-6.25-.38-11.51.22-2.96.52 0c.28 2.88.29 6.01.88 8.99q1.84 9.15 3.8 18.27 1.5 6.95 8.84 23.53zm-6.34-49.03c2.08 12.78 4.2 25.36 8.95 36.61q.12.28.08.59-.02.15-.04.3-.01.11-.06.02c-1.58-2.95-3.24-5.78-4.26-9.01q-1.7-5.37-3.46-10.75-2.79-9.18-2.18-18.54a.45.45 0 0 1 .89-.02l.08.8zm-5.91 98.36q.36.08.52 1.24c-1.29-.18-2.76-.35-4-.83-13.14-5.1-25.39-11.04-36.29-20.35a.07.06-78.9 0 0-.1.07q.1.46.5.9c13.36 14.59 30.55 29.72 48.63 36.06 8.09 2.84 17.74 6.6 26.31 7.12q2.11.13.13.88-12.65 4.83-27.32 6.61-.74-.47-2.05-.84-1.28-.36-2.06-.73c-16.02-7.62-30.29-19.33-41.91-32.02q-2.91-3.18.56-.62 17.67 13.04 38.75 19.38a.13.13 0 0 0 .1-.24q-54.63-28.66-82.78-83.59-.71-1.38-3.23-1.62-51.31-4.96-98.16 10.35-.27.09-.54.01-.18-.05-.36-.01-4.45-5.24-7.07-11.58-.24-.6.36-.82 52.42-19.09 108.1-12.52a.88.88 0 0 1 .67.47q21.17 42.33 59.71 69.8 10 7.12 20.81 13.54a.57.56-41.2 0 0 .52.03q.68-.32.2-.69zm328.69-58.18q-.72.02-1.38-.2-21.64-7.15-44.3-9.85-27.75-3.29-54.87-.21a2.83 2.82-79.7 0 0-2.2 1.53q-19.32 38.61-53.59 64.87a.211.211 0 0 0 .22.36q11.94-5.78 22.95-13.44.07-.05.53-.48.41-.38.95-.27a.39.38-62.7 0 1 .2.64q-22.39 25.13-52.9 38.92-5.07 2.29-10.1 3.28-1.35.27.01.5c4.38.75 6.9-.01 11.96-1.28q5.51-1.39 9.16-3.04 4.59-2.07.34.65c-2.84 1.81-6.34 2.81-9.42 4.66q-3.28 1.97-6.8 3.28-14.59-.77-27.31-6.06a.35.35 0 0 1 .15-.68q6.93.27 13.56-2.24 16.9-6.4 31.15-15.12.32-.19.27-.51-.06-.35-.38-.19-9.56 5.12-20.4 6.06-5.37.46-.27-1.28c23.48-8.01 43.81-23.51 60.99-41.79a.36.36 0 0 0-.45-.56l-23.42 14.08a.282.282 0 0 1-.34-.45c4.25-3.95 9.48-8.08 13.08-11.45q24.42-22.85 39.53-52.85c.63-1.25 1.48-2 2.96-2.15 37.19-3.77 72.79.19 106.72 13.01a.78.78 0 0 1 .39 1.14l-6.99 11.12z" class="B"/><path d="M377.37 848.32q13.84 5.96 27.01 7.15 2.75.25.24 1.4c-6.28 2.84-13.93 3.9-20.65 5.38-49 10.79-97.65.26-138.51-28.24q-41.14-28.69-67.06-71.63a.6.6 0 0 1 .21-.83q3.18-1.89 6.84-2.56.27-.05.34-.32.09-.33-.1-.28.18-.04.36.01.27.08.54-.01 46.85-15.31 98.16-10.35 2.52.24 3.23 1.62 28.15 54.93 82.78 83.59a.13.13 0 0 1-.1.24q-21.08-6.34-38.75-19.38-3.47-2.56-.56.62c11.62 12.69 25.89 24.4 41.91 32.02q.78.37 2.06.73 1.31.37 2.05.84zm320.31-89.88q.12.34.48.64.26.21.7.31 2.95.65 5.47 1.91a.88.87-61.2 0 1 .35 1.23c-24.44 40.6-63.62 77.02-108.52 93.33q-44.17 16.04-91.38 7.44-12-2.18-23.73-5.28a.44.44 0 0 1 .06-.87q14.41-1.7 27.33-8.79 3.52-1.31 6.8-3.28c3.08-1.85 6.58-2.85 9.42-4.66q4.25-2.72-.34-.65-3.65 1.65-9.16 3.04c-5.06 1.27-7.58 2.03-11.96 1.28q-1.36-.23-.01-.5 5.03-.99 10.1-3.28 30.51-13.79 52.9-38.92a.39.38-62.7 0 0-.2-.64q-.54-.11-.95.27-.46.43-.53.48-11.01 7.66-22.95 13.44a.211.211 0 0 1-.22-.36q34.27-26.26 53.59-64.87a2.83 2.82-79.7 0 1 2.2-1.53q27.12-3.08 54.87.21 22.66 2.7 44.3 9.85.66.22 1.38.2z" class="E"/><path d="M483.77 816.03l-15.52 5.36a.35.35 0 0 1-.35-.58q16.02-15.31 24.87-35.62 4.55-7.73 7.96-17.18.58-1.61 1.87-3.38.54-.75.4.16-4.09 25.73-16.79 48.35c-.63 1.11-1.57 1.92-2.44 2.89z" class="B"/></svg>